<?xml version="1.0" encoding="utf-8"?>
<svg viewBox="12.663 12.663 464 464" xmlns="http://www.w3.org/2000/svg">
  <g id="Layer_2" transform="matrix(1, 0, 0, 1, -255.336609, -255.336609)">
    <g>
      <g>
        <path class="st2" d="M496.05,381.46l14.19,51.44L427.9,588.23l-14.2-51.62L496.05,381.46 M499.3,351.87l-97.37,183.44l22.7,82.55 L522,434.18L499.3,351.87L499.3,351.87z"/>
      </g>
      <g>
        <path class="st2" d="M528.85,489.99l6.58,26.28l-38.79,72.78l-6.84-25.57L528.85,489.99 M532.57,459.56l-54.51,102.59l15.18,56.7 l53.9-101.13L532.57,459.56L532.57,459.56z"/>
      </g>
      <g>
        <path class="st2" d="M553.33,574.84c6.99,0,12.67,5.69,12.67,12.67s-5.69,12.67-12.67,12.67s-12.67-5.69-12.67-12.67 S546.34,574.84,553.33,574.84 M553.33,563.84c-13.07,0-23.67,10.6-23.67,23.67c0,13.07,10.6,23.67,23.67,23.67 c13.07,0,23.67-10.6,23.67-23.67C577,574.44,566.4,563.84,553.33,563.84L553.33,563.84z"/>
      </g>
    </g>
    <g>
      <path class="st2" d="M500,279c29.84,0,58.78,5.84,86.02,17.36c26.32,11.13,49.95,27.07,70.25,47.37 c20.3,20.3,36.24,43.94,47.37,70.25C715.16,441.22,721,470.16,721,500c0,29.84-5.84,58.78-17.36,86.02 c-11.13,26.32-27.07,49.95-47.37,70.25c-20.3,20.3-43.94,36.24-70.25,47.37C558.78,715.16,529.84,721,500,721 c-29.84,0-58.78-5.84-86.02-17.36c-26.32-11.13-49.95-27.07-70.25-47.37c-20.3-20.3-36.24-43.94-47.37-70.25 C284.84,558.78,279,529.84,279,500c0-29.84,5.84-58.78,17.36-86.02c11.13-26.32,27.07-49.95,47.37-70.25 c20.3-20.3,43.94-36.24,70.25-47.37C441.22,284.84,470.16,279,500,279 M500,692.79c106.31,0,192.79-86.49,192.79-192.79 S606.31,307.21,500,307.21S307.21,393.69,307.21,500S393.69,692.79,500,692.79 M500,268c-128.13,0-232,103.87-232,232 s103.87,232,232,232s232-103.87,232-232S628.13,268,500,268L500,268z M500,681.79c-100.4,0-181.79-81.39-181.79-181.79 c0-100.4,81.39-181.79,181.79-181.79S681.79,399.6,681.79,500C681.79,600.4,600.4,681.79,500,681.79L500,681.79z"/>
    </g>
  </g>
</svg>