<!DOCTYPE svg PUBLIC "-//W3C//DTD SVG 20010904//EN" "http://www.w3.org/TR/2001/REC-SVG-20010904/DTD/svg10.dtd">
<svg version="1.0" xmlns="http://www.w3.org/2000/svg" viewBox="0 0 420 420" preserveAspectRatio="xMidYMid meet">
<g id="layer101" stroke="none">
 <path d="M110 398 c-69 -37 -104 -94 -108 -176 -3 -56 0 -74 20 -112 37 -69 94 -104 176 -108 56 -3 74 0 112 20 69 37 104 94 108 176 3 56 0 74 -20 112 -37 69 -94 104 -176 108 -56 3 -74 0 -112 -20z m180 -49 c47 -27 80 -83 80 -139 0 -46 -30 -109 -61 -128 -18 -11 -18 -11 -7 7 10 16 9 23 -4 38 -17 20 -61 105 -72 140 -6 18 -1 23 29 33 19 6 35 15 35 20 0 14 -48 20 -76 10 -21 -9 -29 -7 -40 7 -21 28 -17 33 32 33 29 0 61 -8 84 -21z m-198 -102 c-20 -21 -31 -67 -16 -67 4 0 17 11 30 25 13 14 28 25 34 25 6 0 34 -36 62 -80 29 -44 59 -80 68 -80 13 0 13 -1 0 -10 -28 -18 -105 -11 -141 13 -79 53 -101 140 -56 219 l22 40 9 -31 c7 -26 5 -35 -12 -54z m98 13 c0 -5 -7 -10 -15 -10 -8 0 -15 5 -15 10 0 6 7 10 15 10 8 0 15 -4 15 -10z"/>
 </g>

</svg>