<?xml version="1.0" encoding="utf-8"?>
<!-- Generator: Adobe Illustrator 24.0.1, SVG Export Plug-In . SVG Version: 6.00 Build 0)  -->
<svg version="1.1" id="Layer_1" xmlns="http://www.w3.org/2000/svg" xmlns:xlink="http://www.w3.org/1999/xlink" x="0px" y="0px"
	 viewBox="0 0 546 104" style="enable-background:new 0 0 546 104;" xml:space="preserve">
<style type="text/css">
	.st0{fill:#E0B15A;}
</style>
<g>
	<g>
		<g>
			<path class="st0" d="M113.94,34.09L114,68.97c1.29,1.29,2.01,2.01,3.3,3.29h10.48c3.44-3.44,5.36-5.36,8.8-8.8V28.57
				c-1.29-1.29-2.01-2.01-3.3-3.3l-10.54,0C119.3,28.71,117.38,30.64,113.94,34.09z M120.37,66.21V31.32h9.71v34.89H120.37z"/>
			<path class="st0" d="M194.01,28.57c-1.29-1.29-2.01-2.01-3.3-3.3h-26.44v6.05h13.34h0.06h9.78v34.89h-9.84V31.38l-6.5,6.5v30.96
				c1.34,1.34,2.09,2.09,3.42,3.42h10.68c3.44-3.44,5.36-5.36,8.8-8.8V28.57z"/>
			<g>
				<rect x="201.34" y="25.27" class="st0" width="21.62" height="6.05"/>
				<path class="st0" d="M207.78,51.44h11.28v-6.18h-11.28v-13.8l-6.44,6.44v31.07c1.29,1.29,2.01,2.01,3.3,3.3h18.32v-6.05h-15.19
					V51.44z"/>
			</g>
			<path class="st0" d="M249.28,25.27h-6.67l-6.05,6.05h9.52v40.94h3.03h3.47V28.57C251.29,27.28,250.56,26.56,249.28,25.27z"/>
			<rect x="229.93" y="25.27" class="st0" width="6.43" height="47"/>
			<g>
				<polygon class="st0" points="158.17,54.9 158.17,66.08 158.17,66.09 158.17,72.26 164.58,72.26 164.58,48.96 				"/>
				<path class="st0" d="M158.03,66.21h-7.62V25.27h-6.5v43.69c1.29,1.29,2.01,2.01,3.3,3.3h4.76L158.03,66.21z"/>
			</g>
			<path class="st0" d="M103.3,25.27H92.18c-3.44,3.44-5.36,5.36-8.8,8.8v34.89c1.29,1.29,2.01,2.01,3.3,3.3h7.24l6.05-6.05h-10.1
				V31.32h10.29v6.28h6.43v-9.03C105.31,27.28,104.59,26.56,103.3,25.27z"/>
			<polygon class="st0" points="92.52,53.62 100.17,53.62 100.17,72.26 103.13,72.26 106.6,72.26 106.6,47.31 98.83,47.31 			"/>
		</g>
		<g>
			<path class="st0" d="M318.8,66.21h-9.78V25.27h-6.43v43.69c1.29,1.29,2.01,2.01,3.3,3.3h10.54c3.44-3.44,5.36-5.36,8.8-8.8V25.27
				h-6.44V66.21z"/>
			<path class="st0" d="M294.89,37.6v-9.03c-1.29-1.29-2.01-2.01-3.3-3.3h-11.12c-3.44,3.44-5.36,5.36-8.8,8.8v34.89
				c1.29,1.29,2.01,2.01,3.3,3.3h7.24l6.05-6.05h-10.1V31.32h10.29v6.28H294.89z"/>
			<path class="st0" d="M416.79,28.57c-1.29-1.29-2.01-2.01-3.3-3.3h-20.7v6.05h7.6h0.06h9.78v34.89h-9.84V31.38l-6.5,6.5v30.96
				c1.34,1.34,2.09,2.09,3.42,3.42h10.68c3.44-3.44,5.36-5.36,8.8-8.8V28.57z"/>
			<rect x="424.5" y="25.27" class="st0" width="6.43" height="47"/>
			<g>
				<path class="st0" d="M487.97,25.27h-6.67l-6.05,6.05h9.52v40.94h3.03h3.47V28.57C489.98,27.28,489.26,26.56,487.97,25.27z"/>
				<rect x="468.63" y="25.27" class="st0" width="6.43" height="47"/>
			</g>
			<polygon class="st0" points="280.81,53.62 288.45,53.62 288.45,72.26 291.41,72.26 294.89,72.26 294.89,47.31 287.12,47.31 			
				"/>
			<path class="st0" d="M521.38,36.06v-7.5c-1.29-1.29-2.01-2.01-3.3-3.3h-10.67c-3.44,3.44-5.36,5.36-8.8,8.8v11.97l3.58,3.58
				l12.69,4.23v12.35h-9.84V54.39l-6.43,6.43v8.14c1.29,1.29,2.01,2.01,3.3,3.3h11.04c3.29-3.29,5.14-5.14,8.43-8.43V50.91
				l-3.58-3.58l-12.76-4.23V31.32h9.84v11.24L521.38,36.06z"/>
			<path class="st0" d="M457.99,25.27h-10.92c-3.44,3.44-5.36,5.36-8.8,8.8v38.19h6.44v-7.44l10.16-5.75v13.19h6.43V28.57
				C460,27.28,459.28,26.56,457.99,25.27z M444.7,57.59V31.32h10.16v20.52L444.7,57.59z"/>
			<path class="st0" d="M352.3,25.27h-10.92c-3.44,3.44-5.36,5.36-8.8,8.8v38.19h6.44v-7.44l10.16-5.75v13.19h6.43V28.57
				C354.31,27.28,353.59,26.56,352.3,25.27z M339.01,57.59V31.34h10.16v20.5L339.01,57.59z"/>
			<g>
				<polygon class="st0" points="368.85,53.56 386.67,43.46 386.67,45.19 380.4,54.25 368.85,60.79 				"/>
				<g>
					<polygon class="st0" points="363.39,37.9 363.39,72.26 369.82,72.26 369.82,31.46 					"/>
					<path class="st0" d="M383.37,25.27h-21.09v6.06l17.89-0.01v17.45l6.5-5.3V28.57C385.38,27.28,384.66,26.56,383.37,25.27z"/>
				</g>
				<polygon class="st0" points="387.28,72.26 381.49,51.66 376.33,56.56 380.88,72.18 				"/>
			</g>
		</g>
	</g>
	<g>
		<path class="st0" d="M66.38,46.16c0-11.37-8.34-20.83-19.22-22.59v1.19c10.23,1.75,18.04,10.68,18.04,21.4
			c0,10.6-7.64,19.44-17.7,21.33v-2.27c8.83-1.85,15.47-9.69,15.47-19.06c0-9.49-6.82-17.41-15.81-19.13v1.2
			c8.34,1.7,14.64,9.1,14.64,17.93c0,8.72-6.13,16.02-14.3,17.86V41.27l8.16,5.23v-5.49l-8.91-5.72c-0.68-1.99-1.21-3.59-1.22-11.83
			l0.98-3.6l-0.19-0.23c-0.04-0.06-1.11-1.35-2.82-1.35c-1.71,0-2.78,1.3-2.82,1.35l-0.19,0.23l0.98,3.6
			c0,8.27-0.54,9.86-1.22,11.86l-8.88,5.7v5.49l8.16-5.23v22.76C31.34,62.2,25.2,54.89,25.2,46.16c0-8.84,6.3-16.23,14.64-17.93
			v-1.2c-9,1.72-15.81,9.64-15.81,19.13c0,9.38,6.66,17.22,15.5,19.07v2.27c-10.07-1.88-17.73-10.73-17.73-21.34
			c0-10.72,7.81-19.65,18.04-21.4v-1.19c-10.88,1.76-19.22,11.22-19.22,22.59c0,11.26,8.18,20.65,18.91,22.53
			c0.07,4.29,1.24,8.38,3.48,12.17l0.51,0.86l0.51-0.86c2.24-3.79,3.41-7.88,3.48-12.17C58.22,66.79,66.38,57.42,66.38,46.16z
			 M42.64,24.46c0.57-0.03,1.14-0.03,1.72,0c0,0.82,0.02,1.56,0.03,2.25c-0.59-0.03-1.19-0.03-1.78,0
			C42.63,26.02,42.64,25.28,42.64,24.46z M42.58,27.89c0.61-0.03,1.23-0.04,1.85,0c0.03,0.86,0.07,1.61,0.12,2.27
			c-0.7-0.05-1.4-0.05-2.09,0C42.5,29.5,42.54,28.75,42.58,27.89z M43.5,19.46c0.8,0,1.41,0.44,1.71,0.71l-0.85,3.11
			c-0.57-0.02-1.15-0.02-1.72,0l-0.85-3.11C42.09,19.9,42.7,19.46,43.5,19.46z M42.34,31.36c0.77-0.07,1.55-0.07,2.31,0
			c0.23,2.14,0.59,3.18,0.99,4.35c0.03,0.1,0.07,0.2,0.1,0.29l-2.23,1.6l-2.25-1.61c0.03-0.09,0.06-0.19,0.09-0.28
			C41.76,34.53,42.11,33.5,42.34,31.36z M32.54,41.66l7.72-4.95l3.25,2.34l3.25-2.34l7.72,4.95v2.69l-7.75-4.98l-3.2,2.3H43.5
			l-3.2-2.3l-7.75,4.98V41.66z M43.51,79.37c-1.87-3.47-2.82-7.2-2.82-11.1V41.11l2.23,1.6v30.08h1.18V42.71l2.23-1.6v27.16
			C46.33,72.16,45.38,75.89,43.51,79.37z"/>
		<polygon class="st0" points="44.45,35.1 43.5,32.89 42.55,35.1 43.5,36.09 		"/>
	</g>
</g>
</svg>
