<!DOCTYPE svg PUBLIC "-//W3C//DTD SVG 20010904//EN" "http://www.w3.org/TR/2001/REC-SVG-20010904/DTD/svg10.dtd">
<svg version="1.0" xmlns="http://www.w3.org/2000/svg" viewBox="0 0 420 420" preserveAspectRatio="xMidYMid meet">
<g id="layer101" stroke="none">
 <path d="M110 398 c-69 -37 -104 -94 -108 -176 -4 -84 23 -143 86 -187 61 -42 157 -47 222 -13 69 37 104 94 108 176 3 56 0 74 -20 112 -37 69 -94 104 -176 108 -56 3 -74 0 -112 -20z m178 -45 c114 -53 111 -233 -4 -288 -72 -34 -160 -11 -209 54 -44 58 -26 178 34 220 56 40 111 44 179 14z"/>
 <path d="M170 334 c-42 -36 -69 -93 -76 -161 l-6 -58 48 -13 c61 -17 87 -17 147 -1 43 12 47 16 47 44 0 60 -31 138 -70 177 -21 21 -42 38 -48 38 -6 0 -25 -12 -42 -26z"/>
 </g>

</svg>