<?xml version="1.0" standalone="no"?>
<!DOCTYPE svg PUBLIC "-//W3C//DTD SVG 20010904//EN"
 "http://www.w3.org/TR/2001/REC-SVG-20010904/DTD/svg10.dtd">
<svg version="1.0" xmlns="http://www.w3.org/2000/svg" viewBox="0 0 268.000000 268.000000"
 preserveAspectRatio="xMidYMid meet">
<g transform="translate(0.000000,268.000000) scale(0.100000,-0.100000)"
stroke="none">
<path d="M1148 2670 c-352 -56 -673 -249 -886 -535 -106 -143 -199 -355 -239
-545 -25 -118 -25 -382 0 -500 112 -535 506 -939 1034 -1061 124 -29 357 -36
483 -15 562 92 997 507 1117 1066 14 66 18 126 17 275 -1 178 -3 197 -31 306
-133 503 -509 870 -1018 991 -91 22 -381 33 -477 18z m444 -319 c164 -43 332
-134 457 -247 62 -56 155 -176 206 -269 117 -209 155 -501 96 -740 -120 -485
-561 -816 -1056 -791 -166 8 -269 34 -418 108 -266 130 -466 377 -544 673 -23
88 -26 119 -26 255 0 136 3 167 26 252 107 400 400 681 800 768 121 26 342 22
459 -9z"/>
<path d="M1304 2278 c-20 -40 -50 -98 -67 -128 -17 -30 -151 -283 -298 -563
l-267 -507 74 -272 c41 -149 74 -277 74 -285 0 -7 7 -13 15 -13 8 0 15 5 15
10 0 6 31 68 69 138 64 117 253 476 416 787 38 72 92 175 122 230 l54 100 -76
275 c-41 151 -75 281 -75 288 0 31 -23 6 -56 -60z"/>
<path d="M1537 1549 c-40 -73 -237 -444 -299 -565 l-42 -82 49 -201 c32 -127
55 -201 63 -201 6 0 12 4 12 9 0 6 29 63 64 128 35 65 116 219 181 343 l118
224 -48 191 c-27 104 -51 196 -55 204 -5 9 -19 -6 -43 -50z"/>
<path d="M1634 871 c-63 -38 -98 -124 -80 -196 11 -43 71 -101 119 -115 117
-32 234 76 211 196 -8 41 -53 98 -95 120 -40 20 -118 18 -155 -5z"/>
</g>
</svg>
