<svg xmlns="http://www.w3.org/2000/svg" viewBox="0 0 1500.06 1212"><title>Asset 1</title><g id="Layer_2" data-name="Layer 2"><g id="Layer_1-2" data-name="Layer 1"><path d="M736.67,1h59c1.85,1.2,4.34.34,6.09,1.92,6.5,5.85,11.44,12.32,11,21.85a16,16,0,0,0,9.23,16c20.09,10.15,40.73,14.57,62.48,5.2a213.84,213.84,0,0,1,73.49-17.28c9.53-.53,19,.54,28.44.08,23.06-1.11,45.94,0,68.49,5.42,10.06,2.43,17.55,7.82,21.7,17.4,2.46,5.7,1.91,11.18-1,16.75-5.51,10.52-15.34,13-25.68,13.44A498.54,498.54,0,0,0,975,90.15c-9.31,1.81-18.74,3.34-27.6,6.84-10.51,4.15-13.16,13.89-6.64,23.2,2.93,4.19,6.65,7.74,11.32,9.57,12.57,4.9,24.11,12,37,16.28,9.45,3.13,18.56,7.09,26.31,13.89a39.74,39.74,0,0,0,29.79,10.37c13-.79,26-.63,39-.36,21.74.44,43.17,3,63.71,10.79,10.41,3.93,21,7.41,31.31,11.6,19.57,8,39.18,16,56.29,28.79,11.73,8.78,23.48,17.49,36.17,24.93,16.31,9.55,26.16,22.87,23.24,43.09-.7,4.85.89,9.48,3.88,13.62,4,5.49,9.16,9.64,14.15,14,10.3,9.08,18.08,20.44,27.49,30.32,13.78,14.46,28.13,28.37,40.4,44.22,9.59,12.39,18.28,25.4,27.49,38.05,7.84,10.76,16.51,20.88,24,31.94,13.21,19.59,22.43,41.1,31.7,62.7,9.73,22.67,19,45.43,25.71,69.2,4.15,14.72,8.79,29.54,9.76,44.73,2,31.77,1.39,63.65-.27,95.44a67.43,67.43,0,0,1-6.42,26c-6.76,13.9-25,17.42-36.89,7.53-4.5-3.72-6.4-8.8-9.2-13.46-1.34-2.25-2.46-4.93-5.82-4.67s-3.67,3-4.45,5.32c-1.85,5.55-2.73,11.31-3.82,17-4.61,24.24-9.53,48.43-23.19,69.64-6.69,10.39-15.42,17.82-28.64,18.14-6.38.15-10.78-4-15.75-6.89-8.56-4.93-12.16-4.45-18,3.58a154.79,154.79,0,0,0-15.31,25.15c-11.22,23.77-21.32,48.08-34.07,71.12-4.75,8.6-9.2,17.36-15.55,25-6.94,8.34-19.9,13.29-30.12,9.93-7.81-2.56-13.32-13.72-13.31-25.32s4.26-22.26,7.89-32.86c8.58-25.06,13.61-51.05,21.12-76.38,3.66-12.31,5.49-25,8.43-37.51a299.87,299.87,0,0,0,6.93-38.24c1.67-16.25,1.55-32.59,3.3-48.84.92-8.56,1.23-17.35-.36-25.91-3.36-18.08-9.61-35.31-16.56-52.25a84.77,84.77,0,0,0-9.68-18c-5.71-7.83-13.76-7.39-19.07.74-3.81,5.84-3.25,11.65-.56,17.59,4.33,9.53,10.14,18.34,13.42,28.41,5.44,16.71,9.9,33.41,7.18,51.34-2.94,19.37-21.15,30.82-39.6,24.69-7.16-2.38-13.08-6.64-18.67-11.29A320.82,320.82,0,0,0,1165.7,717c-9.56-5.92-15.8-3.74-19.76,6.82a22.65,22.65,0,0,0-1,2.84c-2,9-5.27,17.51-8.72,26-3,7.25-6.06,14.45-7.82,22.08-2.44,10.52-.16,20.39,4.43,30,7.81,16.37,15.35,32.87,19.7,50.62,3.42,14,4.77,28.18,5.39,42.53.94,21.64,2,43.24-2.43,64.67-2.41,11.63-8.07,21-19.45,25.4s-24.65-1.12-32.76-13c-6.38-9.34-11.8-19.3-18.4-28.52s-12.7-18.75-19.23-28-12.17-9.76-20.69-2.34c-.76.66-1.44,1.39-2.19,2.05-6.36,5.64-12.48,11.56-19.14,16.82-9,7.11-13.78,16.09-13.87,27.49-.22,28.74-4.11,57.09-8.95,85.34a155,155,0,0,1-30.21,69.35c-6.08,7.91-12.7,15.4-21.72,20.34-14.48,7.91-29.47,4.31-38.34-9.43-2.4-3.72-3.41-7.94-4.38-12.16-3.18-13.8-2.86-27.79-2-41.77.8-13,1.9-25.92,1.47-38.93-.36-11-6.88-16-17.49-13.21-8.7,2.29-17.28,5-26,7-16.22,3.7-27.8,12.91-34.94,27.9a55.45,55.45,0,0,1-4.43,7.24,351.58,351.58,0,0,1-57.9,65.81c-14.36,12.75-29.06,25-46.37,33.63-13.71,6.83-27.45,13.28-43.41,13.64-18.86.42-31.74-15.49-26.46-35.8,3.2-12.29,10.76-22.07,18-32a128.06,128.06,0,0,0,18.93-36.63c2.77-8.58-1.93-15.35-11-15.82-2.49-.13-5,0-7.49,0-15.49.17-30.88,2.78-46.4,1.8-9.56-.61-18.06,2.24-25.73,7.81-5.39,3.92-10.69,8-16.19,11.69-19.12,13-39.83,23-61.1,31.66-11.31,4.63-23,8.9-35.65,8.87-12.81,0-23.43-6.59-27.19-18.09-2.8-8.57-1.86-17.43,1.55-25.91,2.54-6.33,5.11-12.66,7.43-19.07,2.93-8.12-.16-15.46-8.33-18.09s-16.55-5-25.4-4.85c-17.18.36-34,4-51.24,4.48-31.38,1-62.37.51-90.53-16.23-3.09-1.84-5.47-.68-6.94,2.39-1.8,3.75-1.76,7.7-1.21,11.75,1.84,13.58,5.8,26.65,9.43,39.8,4.85,17.56,6.54,35.18,3.66,53.37-3.43,21.66-12,41.15-23.25,59.61-7,11.44-14.69,22.38-29.34,25h-7c-12-1.19-19.48-7.9-22.36-19.31a53.81,53.81,0,0,1-1.12-16.88c.89-12.16,1.27-24.15-3.35-36-7.67-19.57-19.22-35.14-39.45-43.26-8.54-3.42-17.36-5.77-26-8.67-12.75-4.27-22.21-11.49-22.86-26.27-.41-9.45-5.81-15-14.16-18-16.13-5.73-30.62-14.5-45.1-23.41-23.17-14.25-38.91-34.5-49.15-59.34A161,161,0,0,1,.67,930V885c1.13-4.13,2.47-8.22,3.35-12.4,3.53-16.71,12-31.11,22.27-44.21,8.63-11,18.78-20.7,29.48-29.8S77.14,781,90.09,775.65c10.46-4.33,21.51-7,32.17-10.73,21.09-7.46,42.8-9.55,65-8.14,7.31.47,14.6,1.27,21.9,1.8,7.73.56,10.53-3.29,7.53-10.39a56,56,0,0,0-3.38-6.11c-2.49-4.33-5.12-8.59-7.49-13-8.32-15.41-14.28-31.88-21.26-47.9-8.2-18.81-15.19-38.06-18.25-58.38-2.27-15-4.21-30-6.6-45-4.16-26.1-4.75-52.35-3.22-78.7.61-10.5,2.64-20.8,4.09-31.19,2.31-16.64,4.73-33.24,8.9-49.56,10.86-42.49,29.67-81.48,52.23-118.82,3.78-6.27,2.24-11.1-4.66-13.85-8.35-3.32-16.6-6.88-25-10.06a106.73,106.73,0,0,0-45-7c-15.22,1-30.35,1.57-44.15-6.74S74.48,247.2,60.12,240.22c-5.88-2.86-11.77-6-16.3-11.29-9.67-11.29-11.13-23.47-2.4-35.61,8.32-11.56,16.46-23,19.44-37.31.78-3.74,2-7.4,3.16-11,4.74-15.09,14.57-24.29,31.94-21.9a36.92,36.92,0,0,1,11.48,3.2c12.67,6.31,25,5.9,37.19-1.17,3.31-1.92,6.74-3.64,10.12-5.43,17.18-9.13,34.68-17.65,50.54-29.18a38.37,38.37,0,0,1,30.24-7.08c13.93,2.46,15.87,1.21,24.78-11.45,13.17-18.69,28.86-34.3,49.93-43.95,9.39-4.3,19.08-6.87,29.52-5.91a23.28,23.28,0,0,1,20.95,21.8c.2,4.15.5,8.32,1,12.44.76,6,5.25,8.39,10.82,6.08,2.94-1.21,4.59-3.7,6.62-5.9C386.72,48.34,395.7,42.61,407,47c14,5.43,27.15,5.06,41.19.06,11.27-4,23.05-6.55,33.07-13.51,8.49-5.9,17.08-11.64,26.51-15.94C524.63,10,542.06,4.73,560.89,6c12.45.81,22.09,9.17,23.6,20.5,1,7.75,5.3,12.38,13.11,12.33,18.5-.13,37.15-.54,54.58-7.69C679.88,19.72,707.87,9.25,736.67,1ZM319.2,531.71c0,148.29,117.59,267.18,264.38,267.36C731.11,799.26,851,679.55,851,532c0-147.14-118.8-265-267.18-265C436.3,266.92,319.18,384.12,319.2,531.71ZM1397.87,805.42c4-3.72,2.23-8.77,3.82-12.92,4.76-12.38,6-25.52,7.81-38.49,1.1-7.74,1.26-15.63,2.77-23.27a101,101,0,0,0,1.9-20.8c-.17-15.12-2.38-30.22.34-45.33a18.56,18.56,0,0,0-.24-5c-1-10.19.35-20.73-4.44-30.39a7.07,7.07,0,0,1-.27-3c-.11-19.82-4.3-38.92-10.22-57.71-1.35-4.28-2-8.41.41-12.54a6,6,0,0,0,.21-4.86c-5-17.58-11-34.53-19.28-51.09-14.79-29.4-33.73-56.62-45.73-87.45-.46-1.19-1.74-2.48,0-3.41a2.84,2.84,0,0,1,3.55,1.13c4.34,6.08,10.68,10.44,14.2,17.28,7.13,13.85,20.51,23.78,23.89,40.23,1.57,7.6,6.92,14.1,12.27,20.27,8.92,10.29,16.45,21.72,26.68,31a27.15,27.15,0,0,1,7.23,11.81c2.53,7.9,3.88,16.12,7.12,23.85,8.8,21,16.94,42.27,22.79,64.38A51.55,51.55,0,0,0,1465.32,642c5.17,5.33,4.73,11.86,4.72,18.21,0,8.27-1.26,16.54-1,24.79.41,16.58,2.8,33.07,2.59,49.69a51.93,51.93,0,0,0,.42,6.47,2.13,2.13,0,0,0,1.92,2c1.38.13,1.58-1,1.72-2,1.14-7.7,4.47-15.08,3.79-23-1.38-16-.75-32-1.71-48.08-.68-11.29-1-22.47-4-33.48-1.34-4.9-4-9.32-4.37-14.64a91.81,91.81,0,0,0-4.07-21c-6-19.23-14.34-37.62-21.15-56.57-4.66-13-11.07-25.29-16.52-38-2.44-5.67-4.75-11.25-8.3-16.37-7.07-10.19-15.66-19.58-18-32.44a7.72,7.72,0,0,0-1.43-3.17c-10.36-13.65-20.43-27.55-31.26-40.82-10.39-12.74-22-24.46-32.33-37.26-18.57-23.11-40.69-42.6-62.92-61.85-20.48-17.73-43.94-31.58-66.43-46.59-14.77-9.85-31.07-17.36-46.12-26.92-4.91-3.11-15.83.68-18.39,5.81-1.16,2.31-.45,4.24,1.24,5.87a71,71,0,0,0,10,8.27,144.86,144.86,0,0,0,27.9,14.22c7.2,2.78,9.72,6.5,8.74,13.63-1.16,8.5,3.25,15.35,10.62,17.05,12.43,2.87,20.25,10.62,25.63,21.67s10.23,22.55,16.83,32.87c5.92,9.26,11.56,18.56,16.61,28.32,5.44,10.49,8.67,22,15.1,32a126.65,126.65,0,0,1,15.21,32.39c3.49,11.72,8.77,22.77,11.31,35,7.64,36.88,14.38,73.84,17.52,111.42a140.15,140.15,0,0,0,2.88,20.75c4.75,19.95,5.43,40.18,4,60.54-.46,6.47-1.5,13-1.25,19.43.7,18.06-2.67,35.45-7.63,52.64-2,7-5.2,13.89-6,21-.83,7.33-2.6,14.34-4.19,21.44-2.43,10.79-7.2,21.17-5.38,32.69.22,1.39-.53,2.92-.81,4.39-1.83,9.3-5.77,18.06-6.82,27.6-.84,7.57-1.9,15.18-4.34,22.44-2.64,7.87-7,15.06-9,23.2a195.55,195.55,0,0,1-8.52,25c-.83,2.06-.87,4.06,1.3,5.23,2.33,1.24,3-1.31,3.64-2.38,3.47-6.2,6.73-12.52,9.83-18.91,3.86-7.93,4.65-16.92,8.88-24.82,6.25-11.68,7.78-24.92,11.22-37.53,1-3.65-2.33-6.94-.8-10.23,2.15-4.67,1.53-9.44,1.61-14.22,0-2.79.07-5.3,4.13-3.56,2.05.87,2.14-1.1,2.92-2.37,4.73-7.73,3.88-16.74,5.41-25.1,2-10.86,3.77-21.85,6.88-32.35,3.37-11.39,3.75-23.21,7-34.63,2.64-9.44,3.67-19.53,4.86-29.38.74-6.07,2.58-12,2.42-18.2a131.08,131.08,0,0,1,1.13-18.86c.7-6.08,2-12.18.49-18.65-1.26-5.5-3.6-10.61-4.48-16.25-3.65-23.38-2.07-47.15-5.79-70.52-2.59-16.26-3.66-32.76-7.34-48.85-2.29-10.05-7-19.39-8.75-29.67-1.16-7-1.21-14.18-4.76-20.79-3.86-7.16-5.3-15.4-9-22.71-.74-1.47-2.08-3.94.23-4.72,1.92-.66,2.88,1.79,3.47,3.52.65,1.91,1,4.23,3.16,4.8,3.88,1,5,4.2,6.12,7.29a86.74,86.74,0,0,0,9.55,19.18c3.85,5.87,7.53,11.76,9.11,18.76.82,3.64,3.2,6.49,5.67,9.27,9.85,11.09,15.82,24.5,21.81,37.79,2.83,6.27,3.16,13.45,6.53,19.76,7.35,13.74,14,27.81,16.84,43.35,1.9,10.52,6.62,20.32,8.31,30.83,3.4,21.17,7.52,42.33,5.13,64a14,14,0,0,0,.72,5.9c4.4,12.64,3.11,26,5.22,39a17.65,17.65,0,0,1-.59,6.43c-2.51,11.23-4.13,22.58-5.81,34-1,6.87-.39,13.9-2.46,20.67C1394.81,799,1394.46,802.61,1397.87,805.42ZM953.89,508c-.22-3-.28-6-.69-8.94-2.16-15.49-4.46-31-6.61-46.45-3-21.53-7.68-42.7-16.38-62.64-12.42-28.46-29.17-54.37-47.88-79.17-9.93-13.16-20.26-25.87-31.34-38.07-5.67-6.25-9.89-13.8-16-19.73-4.43-4.3-9.46-7.93-16.08-7.86-2.1,0-3.94,1-4.23,3.46a3.66,3.66,0,0,0,3.06,4.44c2.76.61,4,2.58,5.25,4.89a17.82,17.82,0,0,0,3.55,4.78c15.2,13.8,25.81,31.25,37.67,47.65,14.16,19.58,23.21,42.26,36.59,62.38a59.29,59.29,0,0,1,4.64,8.82c9.1,20.57,16.83,41.59,21.62,63.65,3.73,17.22,8.67,34.17,9.11,52,.33,13.81.63,27.68,2.31,41.36,2.15,17.41-1.34,34.14-3.93,51-2.91,19-11.36,36.43-15,55.26-1.9,9.74-6.12,19-8.45,28.7A35,35,0,0,1,904,688.13c-5.33,6.46-9.89,13.64-12.34,21.48a51.06,51.06,0,0,1-8.1,15.18c-6.18,8.46-10.65,18-17,26.4a2.71,2.71,0,0,0,.1,3.68c1.32,1.39,2.8.9,4-.17a48.4,48.4,0,0,0,4.59-4.58c11.88-13.83,20-30.18,30.07-45.22,5.74-8.57,9.64-18.17,14.9-27,4.89-8.27,10.46-16.15,13.88-25.34,10.35-27.88,14.09-57.17,18.48-86.26C955.41,547,953.13,527.43,953.89,508Zm31.21-38.74c-.37-2.47-.66-4.95-1.12-7.4-5.41-28.69-17.81-55-27.92-82.08-6.37-17.07-15.67-32.69-23.44-49.07-4.87-10.26-11.07-19.72-16.56-29.61a22.1,22.1,0,0,0-6-6.64A59.06,59.06,0,0,1,896.39,280c-6.83-10.67-15.88-19.21-25.54-27.18a17.32,17.32,0,0,0-7.41-4c-2.16-.44-2.9.6-2.25,2.47a13.2,13.2,0,0,0,2.1,3.36c11.51,15.66,23.18,31.22,34.52,47,4.65,6.47,8.85,13.3,12.87,20.2,8.12,13.94,16.44,27.76,23.42,42.37,7.07,14.82,10.82,30.73,16.38,46S962,440.8,964.76,457a523.14,523.14,0,0,1,6.67,77,229.12,229.12,0,0,1-1,31.41c-2.15,18.36-10.08,35.61-10,54.35a20.18,20.18,0,0,1-1.36,5.82c-3,9.7-6.17,19.37-9.16,29.08-3.79,12.33-11,23.17-15.44,35.18-7.85,21.13-18.65,40.75-29.76,60.24a143.73,143.73,0,0,1-8.74,14c-.58.79-1.23,1.83-.27,2.68s1.79-.07,2.54-.71a62.37,62.37,0,0,0,7.7-7.8c2.88-3.49,3.94-8.17,7.42-11.2,10.36-9,17.76-20.23,24.15-32.17,5.4-10.12,11.4-20,14.95-31,1.89-5.81,2.65-12,5-17.72,4.52-10.91,7-22.62,12.56-33.08A39.31,39.31,0,0,0,974.56,620c1.55-10.72,2.59-21.54,4.88-32.1,4.59-21.13,5.45-42.53,6.11-64C986.11,505.67,984.48,487.49,985.1,469.25ZM277,957.08c-16.61,0-31.74-1.75-46.43-6.68C220,946.88,208.92,933.7,212,919.2a106.89,106.89,0,0,1,3.26-12.51c2.57-7.54.36-12.74-7.24-15.21a113.28,113.28,0,0,0-37.38-5.36c-9.87.19-18,3.76-22.08,13.38a42.48,42.48,0,0,0-1.74,27.43c3.09,12.27,10.41,21.8,20.55,29.18,10.78,7.83,21.48,15.87,35.35,17.48,6.22.72,12.28-.28,18.23-1.92,9.94-2.73,19.85-4.14,30-.81,7.39,2.44,12.67,7.81,18.16,12.86,3.6,3.32,8.45,3.93,11.42,1.23,7.84-7.15,17.32-9.45,27.07-11.62,2.59-.58,5.59-1.21,5.82-4.52.22-3.09-2.48-4.44-4.73-5.88-.55-.36-1.18-.61-1.75-.95C297.19,956.15,286.25,958,277,957.08Zm212.43-28.73c3.2,11.46,3.4,22.56,5.88,33.27a18.92,18.92,0,0,0,6.15,10.65c4.51,3.71,9.2,2.94,12.18-2a10.68,10.68,0,0,0,1.36-7.66c-2.52-14.64.32-30-6.1-44.14-.58-1.3.29-3.24.44-4.88.49-5.23-.23-9.94-5.19-13.07a40.78,40.78,0,0,1-4.67-3.75c-1.27-1.09-2.17-3-.59-3.79,5.09-2.67,2.17-6.59,1.87-10s-1.86-5.9-5.9-3.63c-1.53.86-3,.83-2.53-1.11,1.36-5.1-1.8-4.49-4.87-4.39-3.48.12-6.41-1.46-9.34-3.13-4.18-2.39-8-5.74-12.74-6.76-9.08-1.92-17.06-6.53-25.53-9.92a196,196,0,0,1-39.31-21.51c-18.52-12.91-38-24.41-54.84-39.71-11.88-10.79-22.09-23.14-35.9-32.22a67.9,67.9,0,0,1-25.85-32.26,19.69,19.69,0,0,0-3.64-6.49C275.63,717,273.2,711,270.61,705A33.58,33.58,0,0,0,266,698c-1-1.36-2.2-1.18-3.51-.48-1.08.56-1.67,1.54-.88,2.4,2,2.15,1.52,5,2.5,7.46A248.56,248.56,0,0,0,304.72,775c19.7,23.34,40.82,44.81,67.28,61.15,18.55,11.45,36.48,23.78,56.63,32.29,15.43,6.51,30.26,14.9,47.59,15.86a15.09,15.09,0,0,1,7.81,3.14c1.08.78,2.19,1.72,3.61.76,3.46-2.33,3.9.48,4.57,2.7a13.18,13.18,0,0,1-.72,8.81c-1.34,3.45-2.88,7.43-2.06,10.66C491.07,916.72,494.67,922.7,489.39,928.35Zm622.37-1.79c-.22,6.66,6.59,11.28,2.74,18.35a2.47,2.47,0,0,0,1.67,3.6c5.45,1.12,6.51,5.58,8.09,9.77.79,2.11,1.29,5.14,4.15,4.85,3.23-.33,3.56-3.55,4-6.17.21-1.13.11-2.33.24-3.48.84-7.14,0-14.31.26-21.4,1-22-1.74-43.42-6.86-64.71-3.86-16-10.95-31-15-47-1.64-6.55-5.18-12.64-9.3-18.13-4.76-6.33-13.47-5.93-17.66.66a63.9,63.9,0,0,0-8.48,19.61,15.36,15.36,0,0,0,2,12.33c6.76,11.24,14.42,22,18.76,34.58a21.73,21.73,0,0,0,2.13,3.93c7.55,12.6,11.5,26,8.81,40.77-.19,1.07-.4,2-1.53,2.28a2.13,2.13,0,0,1-2.46-1.29,27.7,27.7,0,0,0-3.41-4.81c-4.51-6.12-9.62-12.06-10.91-19.88a25.1,25.1,0,0,0-3-7.78c-2.33-4.43-6.78-7.66-8-12.52-2.52-9.77-9.33-15.12-20-11.46-4.21,1.45-5.75,5.41-3,8.95a22.9,22.9,0,0,0,4.19,4.27c11.51,8.85,19.93,20.51,28,32.24,6.82,9.93,12.45,20.67,20.7,29.75C1109.79,932,1108,928.71,1111.76,926.56Zm111.72-231.3a27.42,27.42,0,0,0-3.27-14.94c-3.65-7.09-7.91-13.92-11-21.25-4.87-11.64-12.22-21.35-21.28-29.86a38.8,38.8,0,0,1-9.26-12.22,38.6,38.6,0,0,0-15.7-17.63c-8-4.75-14.49-4.43-20,1.3a26.88,26.88,0,0,0-7,13.07c-1.35,6.24-.51,7.35,5.78,8.43a19.4,19.4,0,0,1,7,2.64,52.31,52.31,0,0,1,15.82,15.67,64.93,64.93,0,0,0,8.66,10.94c5.4,5.12,9.33,11.17,13.31,17.34,7.57,11.7,14.43,24,26,32.57,3.27,2.43,3.83,6.19,4,9.84.1,2.75-1.32,4.21-4.13,2.3-3-2.06-5.85-4.42-9-6.25-6.07-3.54-8.87-9.83-12.78-15.1-9.69-13-23.12-21.94-35-32.58a10,10,0,0,0-8.85-2.32,33.47,33.47,0,0,1-5.43.69c-7,0-9.74,3.94-6.24,10.18a47.52,47.52,0,0,0,16.6,16.83c6,3.77,13,5,19.34,8,15.27,7.3,28.85,17.06,42.1,27.37,4.4,3.42,9,.27,13.48.7,1.37.13,1.9-1.62,2.08-3,.38-3.06.1-6.08-1.83-8.54C1223.57,705.16,1223.32,700.28,1223.48,695.26Zm-986.15,489c2.84-2.87,2.89-2.86,3.61-6.49.49-2.46,1.34-4.12,4.24-4.71,10.14-2.07,15-8,15.52-18.39.12-2.33-.19-4.81.54-6.94,3.78-11,5.32-22.42,6-33.84.7-12.21.29-24.39-4-36.35s-10.34-22.68-16.32-33.59c-5.51-10.06-14.05-17.47-25.23-19.54-8.26-1.53-16.24-4.77-24.86-4.65a11,11,0,0,1-9.08-4.58,11.65,11.65,0,0,0-6.35-4.37c-2.55-.87-5.3-.79-7.64-1.64-2.49-.9-4.22-2-5.49,1.14s.67,4.59,3,6c4.29,2.65,9.14,2.71,13.91,3.14,2.32.22,4.72.17,6.45,2.07,4.13,4.52,9.21,8,13.41,12.48,9.71,10.47,20.88,19.55,28.78,31.74,4.27,6.59,8.61,13,10.5,20.76,1.09,4.5-.55,6.89-3.86,5.4-6.35-2.86-13-4.82-16.72-12.25-5.25-10.59-14-14.48-24.2-12.74-1.11.18-2.57,0-2.89,1.43a2.69,2.69,0,0,0,1.58,2.89c7.44,2.72,11.63,9.94,18.58,13.29,4.71,2.28,7.61,6.21,10.08,10.7,5.34,9.68,8.9,20,12.27,30.49,2.16,6.68,3.93,13,.1,19.73-.83,1.43-.47,3.57-.54,5.39C238.27,1161.7,239.9,1172.65,237.33,1184.24Zm855.5-756.18c0,7-.14,14.69.05,22.35.16,6.21,3.24,9.4,9.33,10.11,2.51.3,4.43,1.16,5.42,3.68,3.82,9.77,12.49,12.15,21.49,13.77a26.56,26.56,0,0,1,18.55,12.75c4.69,7.94,8,16.73,12,25.13,9.22,19.51,18.37,39,30.78,56.8.88,1.26,1.23,3.9,3.19,3.17s.78-3.23.94-5a2.75,2.75,0,0,0-.12-1c-3.31-11.5-6.31-23.1-10-34.47-4.9-15-11.9-29.12-16.59-44.25-4.2-13.55-9.42-27-19.7-37.76-5.37-5.6-7.47-5.86-12.63-.08-2.41,2.69-5,5.8-9.34,4.14a14.88,14.88,0,0,0-8.77-.75c-3.83.79-5.64-1.19-5.69-4.93a24,24,0,0,1,.15-4.49c3.12-18.37,1.69-36.89,1.77-55.36a21.69,21.69,0,0,0-2.77-11.53c-2.61-4.32-6.85-4.81-10.33-1.23a21.3,21.3,0,0,0-5.78,11.9A154.66,154.66,0,0,0,1092.83,428.06Zm-871-317.46a32.66,32.66,0,0,0-4.15,1.57c-5.37,3-10.25,6.62-15.79,9.4-13.62,6.83-27.64,13.12-37.81,25.35-3.31,4-7.08,8-12.24,10-3.56,1.36-3.88,3.64-2.3,6.71s4,3.55,6.66,2.14c5.6-2.92,12.23-3,17.58-6.64a6.16,6.16,0,0,1,3.89-.48A30.93,30.93,0,0,0,198.18,154a25.55,25.55,0,0,1,9.79-3.42c16.13-2.43,32.25-4.44,48.62-2.66,5.2.57,9.77-1.57,14-4.48,1.4-1,2.65-2.24,2.38-4.12-1.14-7.91.95-14.58,5.27-21.55,7.85-12.67,13.68-26.6,23.8-37.87a22,22,0,0,0,4.28-7.83c1.06-3.22-.77-5.57-4.18-5.41-4.23.19-8.08,1.16-11.37,4.24a92,92,0,0,0-19.82,26.66,31.58,31.58,0,0,0-3.06,12.53c-.48,9.72-4,12.78-13.38,10.09-6.71-1.94-13.09-1.51-19.68-.49-3.78.58-7.56,1.2-11.34,1.77-1.89.29-3.83.19-5-1.45-1.38-1.91.2-3.39,1.18-4.91C220.41,113.89,221.84,113,221.85,110.6ZM1275.52,509.47c1.11-8.7-1.26-11-8.27-13.61-3.67-1.38-6-.1-6.43,3.71a26.26,26.26,0,0,1-3.8,11.27c-5.07,8-7.6,16.89-10,25.87-.36,1.36-2,2.9-.51,4s2.91-.87,4.38-1.42,2.11-3.74,4.37-2.29,1.18,3.89.87,6c-.17,1.16-.4,2.3-.51,3.46-.45,4.46-3.12,6.16-7.24,5.39a101.28,101.28,0,0,1-13.9-3.37c-5.63-1.91-7.13-1.27-7.88,4.59-.65,5.1-2.84,6.67-8.44,6.87-5.1.18-5.17-3.55-5.32-6.73a18.41,18.41,0,0,0-3.26-10.27c-.77-1.09-1.5-2.36-3-2.24-1.74.13-2.56,1.55-3,2.95-1.29,3.72-.93,7.56-.43,11.36,2,15.28,4.23,30.54,3.82,46-.11,4-.14,7.89,1.59,11.73,2.35,5.2,4.86,6.3,9.59,3.28a84,84,0,0,0,15.48-13.31c6.18-6.5,11.77-13.73,18.69-19.32a34.59,34.59,0,0,0,10.69-13.94c1.62-3.83,3.11-7.81,5.38-11.23a36.07,36.07,0,0,0,5.51-13.76C1276,532.57,1277.81,520.58,1275.52,509.47ZM959.2,1003.83c0,5.32-.1,10.64,0,16,.29,13.09-7.25,24.09-9.69,36.45-.74,3.73-2,7.35-3.13,11-.7,2.34-1.9,4.24-4.6,2.27-2.86-2.08-3.86-.41-5.36,1.8-2.86,4.22-3,9.15-4.07,13.78-1.87,8-6.09,15.61-4.6,24.25.27,1.54-.34,3.63,1.89,4.13,2,.43,2.82-1.27,4-2.44,3.63-3.57,5.12-8.06,6-12.89.67-3.92,2.32-5.93,6.42-3.28,2.64,1.7,4.69.67,6.44-1.61a34.26,34.26,0,0,0,3.21-6.15c5.31-10.94,8.48-22.68,12.9-33.94,6.84-17.46,12.26-35.28,11.77-54.26-.53-20.43,1-40.88-1-61.3-.53-5.62-3.32-8.38-8.81-7-2.93.74-5.8,1.55-8.83,1.26-9.89-.94-16.33,4.25-21.41,11.93-.76,1.15-1.55,2.24-.65,3.64s2.27.92,3.59,1c6.07.25,11.46-1,15.81-5.71,1.58-1.7,4.15-2.92,6.29-1.53,2.89,1.89,1.58,9.68-1.48,11.35s-5.62,4.27-6,8c-.48,5.13-.88,10.32,0,15.44A97.77,97.77,0,0,1,959.2,1003.83Zm119-785.68c3.15-.26,6.31-.41,9.44-.81s6.41-.48,9.34.84c7.89,3.53,16.15,3.07,24.36,2.35,16.4-1.44,32.09,1.52,47.42,7,9,3.22,16.21,9.74,24.37,14.53,9.5,5.58,19.24,10.58,29.86,13.66,1.81.52,4.4,1.27,5.62-.55,1.4-2.11-1.21-3.4-2.22-5-3.49-5.53-9.86-7.17-14.88-10.52-4.34-2.89-6.91-7.38-11.65-9.92-10.63-5.7-22.26-8.68-33.17-13.51-9-4-18.22-7.35-28.14-8a92.91,92.91,0,0,1-28.13-6.1c-14.21-5.53-29-6.41-44.2-5.47-10.92.69-21.82,2.1-32.89.82-6.5-.74-12.07,2.63-15.25,8.58-4.37,8.19-1.28,15.33,3.66,22.17,3.74,5.17,8.22,1.55,12.35,1.29,3.3-.21,5.56-2.08,5.63-5.8,0-2.1,1-3.71,3.25-3.61C1054.77,220.61,1066.44,218.94,1078.18,218.15Zm-984,726.61.13-1.28c1-.12,1.92-.18,2.87-.36,10-2,14.65-6.83,14.3-14.82-.22-4.9-1.91-6.55-6.88-6.31-4,.2-8.08.76-11.93-.29-3.6-1-6.74-2.06-10.39.2C80.5,923,78.06,922,76.64,920c-1.12-1.57-.73-3.11.24-4.64a4.52,4.52,0,0,1,5.21-2,30.46,30.46,0,0,1,3.24,1.25c12.56,4.3,21.33-2,20.45-14.61-.26-3.62-1.9-5.82-5.42-5.88-11.85-.17-23-4.5-34.71-5.63-3-.29-4.05.15-4,3,.1,4.65.08,9-3.24,13.1-2.73,3.41-.44,7,4,7.48,4.66.46,7.38,3,7.92,7.49.31,2.5,1.67,6.34-1.17,7.2s-5.16-2.19-6.26-5.19c-.73-2-1.26-4.85-4.09-3.76-2.43.93-1.77,3.62-1.16,5.74.79,2.74,1,4.8-1.1,7.68-2.43,3.34-4.65,7.93-1.77,12.54,2.55,4.08,5.19,8.1,7.83,12.12,3.48,5.3,4.29,5.53,9.09,1.54,4.06-3.39,8.26-5.58,13.67-3.67,3.12,1.1,6,2.58,5.86,6.41-.11,2.6-5,4.55-8.52,3.57-3.23-.89-5.2.29-6,3.41-1.65,6.35,3.89,13,10.42,12.66,1.65-.09,3-.66,3.34-2.41,1-5.38,4.56-4.81,8.37-3.7,2.07.61,4.09,1.41,6.19,1.91,11.55,2.79,9.65,4.66,16.5-7,2.22-3.77,3.85-7.3,1.21-11.6s-6.34-6.65-11.59-6.14c-2,.2-4.82.72-5.59-1.07C103.31,944.55,98.83,944.74,94.21,944.76Zm695.5,56.39c-7.76.7-17,.3-25.31,5.25-2.15,1.29-3.08,2.86-2.73,5.31a4.62,4.62,0,0,0,3.77,4.13c3.34.83,6.49,2.19,10.16,2a22.71,22.71,0,0,1,12.1,2.41c6.07,3.19,6.47,8.93,1,12.92-3.61,2.66-7,5.67-10.35,8.62A98.18,98.18,0,0,0,758,1066.82c-6.51,11.26-17.19,18.92-24.64,29.35-1.67,2.34-1.74,5.89-4.17,7.17-4.86,2.55-8.43,6.35-12.18,10.12-2.16,2.17-3.65,4.44-2.45,7.31.78,1.87,8.08,2.39,9.84,1.08,6.31-4.74,11.89-10.48,19.29-13.7a7.81,7.81,0,0,0,2.32-1.87c11.67-12.24,25.58-22.33,34.84-36.89,5.54-8.72,14.63-15.14,18.51-24.67,3.68-9,9.12-16.18,15.73-22.92,6.31-6.44,2.31-17.16-7.2-18.88A111.05,111.05,0,0,0,789.71,1001.15Zm-566-156.68h.07c0,3.33-.07,6.66,0,10,.12,4,2.82,6.31,6,7.91,2.62,1.3,6.08,1.9,8-.43,3.13-3.88,9.56-4.08,10.69-10.12.26-1.41,2.29-2.07,3.81-1.14a2.25,2.25,0,0,1,.27,3.83c-5.35,4.87-4.11,11.34-4,17.32,0,3.68,2.9,6.31,6.27,7.73a7.08,7.08,0,0,0,7.53-1.16c1.75-1.44,2.39-3.56,3.21-5.56.61-1.5,1.58-2.58,3.35-2.45a3.23,3.23,0,0,1,3,2.89,47,47,0,0,1,.65,5.92c.47,7.78,5.3,15.92,10.65,16.37,4.43.38,8.27,2.42,12.5,3.06,2.32.36,3.2,1.49,3.09,3.64-.38,7.74,1.66,8.79,10,11a22,22,0,0,0,5.43.64c4,0,7.22,1,8.22,5.55.48,2.22,2,3.81,4.29,3.26,3.63-.9,6,1.17,8.65,2.81,3.95,2.42,7.32,5.8,11.83,7.25,1.61.51,3.45.75,4.67-.69s.49-3.11-.26-4.66c-1.64-3.41-4.68-5.12-7.92-6.5-3.51-1.49-6.42-3.62-7.88-7.21-2.27-5.61-6-8.54-12.33-7.61-4.67.68-7.69-1.35-8.4-6.29-.23-1.64-.77-3.23-1.12-4.86-.93-4.39-4-5.55-8.15-3.71-2.23,1-4.62,5.72-7.52.62-1.5-2.65-5.74-3.08-5.58-7.14.33-8.44-4.61-14.68-10-20-10.07-9.83-18.66-21.07-29.91-29.85-5.93-4.62-11.89-8.3-19-10.23-1.26-.34-2.53-1.14-3.64.28-3.34,4.31-8.51,7.75-6.46,14.54C224.08,841,223.69,842.8,223.69,844.47ZM957.36,63.78c6.91-.26,13.58-1.17,19.75-4.6,3.24-1.81,1.78-3-.11-4.15a6.76,6.76,0,0,0-3.32-.86c-7.44-.13-14.91-1.39-22.29,1.08a71.79,71.79,0,0,1-11.64,2.6C916.42,61.46,894.51,70,872.26,77.33c-5.14,1.69-9.73,4.88-15,6.55s-6.87,6.51-4.87,11.8c.72,1.9,1.49,3.75,1.08,5.78-1.66,8.29.21,15.21,7.32,20.39,2.47,1.8,5,3.9,1.34,7.07-.92.78-.68,1.79,0,2.69,3.5,4.69,18.18,11.43,23.16,9.43,5.25-2.12,10.79-3.21,16.2-4.79,6.87-2,10.16-8.18,3.89-13.29a24.34,24.34,0,0,1-3.14-3.87c-2.39-3-5.19-3.8-8.82-2.15-6.1,2.79-11.8,1.5-16.76-2.62a33.83,33.83,0,0,0-8.52-5c-2.94-1.26-7.28-1.86-7.75-5.38-.54-4,3.69-5.92,6.32-8.37,1.5-1.41,3.34-1.19,5.2-1.06A25.76,25.76,0,0,0,884,92.06c5.5-2.37,10.88-5,16.43-7.26,8.46-3.39,16.61-8.06,26-8.46a19.63,19.63,0,0,0,12.13-4.64C944,67.32,950.21,64.3,957.36,63.78ZM406,884.87c3.06.43,4.92-.57,6.17-4s-.45-5-2.71-6.5c-8.16-5.45-16.05-11.4-24.62-16.11a322.22,322.22,0,0,1-44.19-29C319.4,812.51,299,795,283.59,772.4c-9.94-14.58-21.87-27.63-32.38-41.77-.51-.7-1.08-1.43-2-1.13-1.12.36-.66,1.16-.42,2a83.78,83.78,0,0,0,14.64,28.43c5.91,7.65,9.57,16.69,15.32,24.4,5.92,7.93,9.73,17.39,17.88,23.73,9.6,7.48,16.19,18.05,25.72,25.66,5.33,4.25,10.43,8.8,15.76,13,11.34,9,22.87,17.84,36.19,23.83,8,3.61,16.4,6.44,23.56,11.82A13.12,13.12,0,0,0,406,884.87Zm363.13-864-.06-.27c-11,1.47-22.19,2.21-33,4.56-23.36,5.05-45.08,14.71-66.39,25.3-4.9,2.43-7,6.57-5.23,10.39.49,1.09,2.37,1.82,1,3.36a2.1,2.1,0,0,1-1.83.25A2.91,2.91,0,0,1,661.44,61a4.1,4.1,0,0,0-2.08-4.22c-3.3-2.19-14.09,0-16.18,3.31a6.42,6.42,0,0,0-.89,5.74c2.14,6,4.09,12.11,12.11,12.75,2.21.18,4.32,1.62,6.49,2.47,6.45,2.53,12.56,6.39,19.94,5.5,3-.36,5.51-1.67,6.85-4.43,1.42-2.93-1.48-4.06-2.88-5.7-4.07-4.77-4.12-7.13.39-11.5,4.1-4,8.57-7.3,14.45-8.34,8.22-1.45,16-4.64,23.87-7.14,4.4-1.39,8.85-3,12.39-6.27a18.11,18.11,0,0,1,9.72-4.7c10.62-1.59,20.46-5.66,30.24-9.88a5.68,5.68,0,0,0,3.57-6.42c-.48-2.31-3.4-1.19-5.28-1.32C772.49,20.73,770.82,20.83,769.16,20.83ZM116,815.91A12.56,12.56,0,0,0,106,822.54c-1.22,2.31-2.57,4-5.4,4.61-3.87.82-4.55,3.53-2.84,6.85,2.3,4.49,1.09,8.47-1.86,12-4.38,5.22-10.31,5.17-16,3.44-3-.89-5.1-.19-7.54.86-6.07,2.6-9.37,7.16-11.47,13.46-1.72,5.2-1.48,8,3.53,10.31,1.8.83,3.94,1.27,5.37,2.52,7.29,6.37,16.17,7.25,25.18,7.53,2.77.08,5.56-.91,8.36-1.26,8.47-1.08,10.85-4.6,8.59-12.94a32.2,32.2,0,0,0-1.65-4.69c-1.23-2.72-2.37-6,.4-7.74,3.19-2,6.17-6.06,11.08-3.32,3.75,2.09,7.66,3.41,11.55,0,4.18-3.67,6.48-7.95,5-13.68-.69-2.73-1.3-5.49-1.93-8.25C134.59,824.66,124.56,816,116,815.91ZM1197,522c-.52,3-.63,5.31,1.42,7.08a3,3,0,0,0,3.21.81,2,2,0,0,0,.94-2.58c-2.41-6.82.23-14.3-2.92-21a10,10,0,0,1-1-5.82,29.38,29.38,0,0,0-5.31-24.55,7.42,7.42,0,0,1-1.24-2.71c-.59-2.8.55-5.27,3.09-6.07,6.15-1.95,6.87-3,3.71-8.91a43.06,43.06,0,0,1-4.25-12.72c-1.37-7.4-3.14-14.64-7.85-20.84a16.15,16.15,0,0,1-2.95-6.27c-1.22-5.9-4.22-10.82-7.62-15.59-3.91-5.5-8.87-7.33-14.71-5.46-4.39,1.4-7.33,5.67-6,12.29,2.35,11.49,4.2,23.61,9.38,33.9,9.19,18.31,17,37.2,25.68,55.72C1194,506.44,1197.16,514.19,1197,522ZM411.3,90.66c-7.36-.6-9.36-3.07-8.5-10.58.29-2.48.52-5,.58-7.45s-.74-4.75-3.51-5.34c-2.92-.62-4.75,1-5.84,3.55-1.28,2.91-1.5,6.15-2.42,9.12-2,6.42-1.84,14.82-12.14,14.67-1.76,0-3.57,1.66-5.3,2.64-1.16.66-2.39,1.48-2,3.09.31,1.33,1.61,1.61,2.75,1.81,6.32,1.1,12.06,4.77,18.84,4,2.84-.32,5.61.94,8.14,2.14,3,1.41,6,1.54,9.2,1.71,8.8.47,15.76-4.85,23.62-7.29,2.16-.67,3.36-1.24,4.9,1.08s4.11,1.85,4.09-.89c-.05-5.54,5.05-6.07,7.61-9,3-3.46,6.91-3.91,11.33-3.77,4.12.13,7.68,1.87,11.55,2.6,4.37.82,9.38-1.69,10.24-5.21,1.08-4.44-.68-7.46-5.25-8.59-2.28-.56-2.08-2.19-1.81-3.94.47-3-.28-5.81-3.58-6-8.48-.59-17.38-.85-24.16,5.05-9.91,8.62-22.39,11.29-33.91,16.22C414.43,90.81,412.79,90.55,411.3,90.66ZM199.21,805.53c1.9-5.49-3.13-5.79-6.66-7.12-1.66-.62-3.8-.87-5,1s.21,3.28,1.52,4.68c5,5.25,4.93,7.75,0,13-2.44,2.58-4.78,5.1-4.68,9,.07,2.52-.82,5.16-3.57,5-2.4-.15-3-3-2.95-5.13.19-6.14-3.45-10.78-6.8-15-7.1-8.92-16.69-8.77-26.39-.71-2.24,1.86-2.58,3.64-2,6.49,1.1,5.61,4.92,10.12,5.61,15.91.84,7,6.07,12.47,11.67,13.21,11.13,1.47,15.07-.28,19-8.49,1.4-2.92,3.15-4.34,6.07-1.63s5.91,4.82,8.26,7.93c3.32,4.4,12.74,6.49,17.64,3.94,2.54-1.32,4.86-3.22,4.77-6.47-.08-2.82.46-5.25,2.52-7.28.73-.72,1.3-1.82.77-2.72-3-5.14-4.12-11.74-11.48-13.35C202.76,816.78,199.21,811.23,199.21,805.53Zm275.57,279.9c-2.16,6.76,2.08,11.64,8.59,10.06,3.54-.86,6.93-2.38,10.48-3.24,5.9-1.44,9.73-6.54,14.94-8.57,5.85-2.29,11.63-4.79,17.5-7,16.75-6.33,31-16.37,44.52-27.86,5.66-4.81,9.65-11.66,16.9-14.51,3.23-1.27,4.85-3.31,5-6.67a7.54,7.54,0,0,0-4.56-7.65,65.71,65.71,0,0,0-7.87-3.12,69.86,69.86,0,0,0-30.1-2.54c-1.1.13-2.54.2-2.67,1.71-.1,1.15,1,1.7,1.91,2,3.4,1.33,6.81,2.65,10.3,3.73,6.3,2,7.54,5,3.59,10-3.34,4.23-3.26,8.2.35,12,1.13,1.2,1.12,2.09-.13,2.75-3.49,1.85-6.34,7.42-11.26,2-.65-.7-2.19-.88-3.3-.84-10.52.41-19.24,3.76-26.54,12.26-9.63,11.2-21,20.4-37.36,19.39-3.2-.2-4.19-.86-2.09-3.72.51-.69,1.79-1.18.85-2.5-1.92.55-3,2.17-3.87,3.63-1.07,1.75-5.81,4.78,1.1,5,.38,0,1.14,1,1,1.45-.7,2.83-2.48,5.65-4.91,6.37S476.92,1086.55,474.78,1085.43Zm150-907.27c3.4,0,6.23.11,9.06,0,9.35-.43,9.35-.46,9-9.7a5.57,5.57,0,0,1,0-1c.38-2.77-.83-4.14-3.49-5.09a58,58,0,0,0-14.56-3.11c-9.09-.79-18.18-.23-27.33-1.52-15.2-2.13-30.66-5.13-45.85.71a8.73,8.73,0,0,1-3.93.45,87.48,87.48,0,0,0-17.43.25,90.61,90.61,0,0,0-20.48,4.1,6.12,6.12,0,0,0-4.21,7.06c.56,2.94,3.62,3.85,6.86,3.35,2.77-.42,5.62-.31,8.43-.52,8.22-.61,16.6-.42,24.35-3.71,2.78-1.18,5-1.17,7.46.4,5.84,3.71,12.27,4.69,19.12,4.31,9-.5,18.08-.89,26.85,1.25S616.46,177.26,624.8,178.16ZM602.31,938.58a11.61,11.61,0,0,0-1.22-5.32c-5.56-12.47-13.77-22.92-23.42-32.55-8.55-8.53-19.28-15.39-23.34-27.77-.3-.92-1.78-2.06-2.14-1.4-1.22,2.24-4.66,2.71-3.9,6.72,1.92,10,5.64,19.48,7.64,29.43a29.76,29.76,0,0,0,8.1,14.72,58.85,58.85,0,0,1,13.14,22.1c2.55,7.32,7.54,10.27,13.56,9.16S602.27,945.65,602.31,938.58ZM413.69,119.84c-9.34,0-14.59,6.71-14.11,16,.22,4.31,1.66,5.34,5.72,4,1.09-.37,2.1-1,3.19-1.4,6-2.26,11.57,1.27,12.6,7.65.72,4.52,4.11,6.74,8.23,7.57,9.58,1.92,10.54,4.16,4.76,12-1.34,1.83-3.6,3.5-2.31,6.1,1.2,2.4,3.89,2.73,6.14,2.49,6.23-.67,11.08,1.36,15.68,5.62,3.59,3.32,7.82,1.93,9.08-2.24.88-2.89,1.18-5.74-.32-8.7a65.61,65.61,0,0,1-3.31-9.25,44.58,44.58,0,0,0-10-16.66c-3.19-3.43-7.32-5.82-10-9.73C432.58,123.73,422.06,122.19,413.69,119.84ZM967,197.53l-1.26,0c0-6-.24-12,0-17.94.65-13.66-6.59-21.07-18.67-24.58-4.51-1.31-8.22-.61-11.17,3.1s-3.09,7.84-.3,11.52c3.93,5.21,5.87,11,7,17.33a43.4,43.4,0,0,0,5.72,15.36c4,6.43,5.34,13.34,5.46,20.87.13,8,3.23,15.19,8.23,21.51,1.15,1.45,3.46,1.93,3,.06-1.45-6.34.22-11.73,3.17-17.07.06-.12,0-.32-.07-.49C966.93,217.38,964.24,207.62,967,197.53Zm55.47,113.67a19,19,0,0,0,1.22,6.85c2.22,6.47,5.15,7.76,11.3,4.68,2.3-1.15,4.51-2.08,7.12-1.73a11.54,11.54,0,0,0,8.93-2.24c1.44-1.09,3.54-2.43,4.92-.6,3.55,4.67,8.23,5.48,13.7,6.12,4.31.5,6-1,6.88-4.35a84.08,84.08,0,0,0,2.09-10.78c1.29-9.6-9.35-22.22-18.22-20.85-7,1.1-14.2,1.68-21,4C1029.48,295.68,1022.53,303.34,1022.45,311.2ZM920.4,241.36c.3-6.32.26-7-1.13-9.35-7.09-11.94-16.93-21.23-28.27-29-2.09-1.44-4.44-1.65-6.23.62-2,2.56-1.07,13.4,1.5,15.41,3.53,2.77,5.05,6,3.78,10.44-2.5,8.71-.28,16.48,4,24.26a59.54,59.54,0,0,0,12.34,15.42c1.86,1.69,3.6,3.75,6.44,2.8a8,8,0,0,0,5.52-6.4C920.25,257.16,919.29,248.61,920.4,241.36ZM636.26,891.77c21.93-1.55,42.5-6.24,62.12-15.23,13.66-6.26,28.73-9,42.12-16.08,2.37-1.25,4.84-2.19,6.45-4.46.72-1,2.38-1.7,1.52-3.32s-2.35-1.34-3.94-1.12c-4.69.67-8.78,3-13.18,4.48-8.81,3-18.27,3.51-26.86,7.43A106.85,106.85,0,0,1,690,868.81c-14.25,4.15-28.89,6.47-43.5,8.92-5.61.94-11.75,2.74-16.91,1.36-6.77-1.81-12.38,1.1-18.51,1.58-2.49.19-3,2.75-2.9,5.11.1,1.83.59,3.1,2.83,3.31C619.59,889.92,628.18,890.9,636.26,891.77Zm566.66-511c-.48-.42-1.07-1-1.71-1.5-7.72-6.07-17.75-6.34-26.23-10.46-9.08-4.41-19.16-6.67-27.55-12.51a80.45,80.45,0,0,0-20.7-10.75,37.23,37.23,0,0,1-15.93-9.81,15,15,0,0,0-8.72-4.47c-1.48-.24-3.12-.49-4.23.79s-.27,2.85.38,4.17a40.93,40.93,0,0,0,7.37,11.18c17.35,17.62,39.91,25.94,62.12,34.84,2.92,1.17,7.39,1.84,9.5-.49,2.42-2.66,4-1.56,6.42-1.1C1190,381.92,1196.26,389.45,1202.92,380.79ZM721.64,130.07c-.07-5.74-3.5-9.41-8.73-9.9a32.85,32.85,0,0,0-22.31,5.56c-4.25,2.9-8.28,6.31-12.88,8.51-13.4,6.41-19.09,18.77-24.88,31.09-3.55,7.57-4.37,15.93-6.24,24-.31,1.33-1.64,3.06.26,4a3.42,3.42,0,0,0,4.36-1.57c3.49-6.55,9.32-12.19,10.18-19.73.66-5.85,2.5-9.75,8-11.89A8.5,8.5,0,0,0,672.1,158c4.3-4.47,9.8-6.64,15.47-8.75a239.16,239.16,0,0,0,28.75-12.6C719.22,135.07,721.51,133,721.64,130.07Zm-488.07,258,1.26.68c2.75-5.41,5.76-10.71,8.12-16.28,1.33-3.17,2.76-5.14,6.44-4.76,2.18.23,4.31.09,5.86-1.93,4.37-5.64,8.89-11.17,13.17-16.87,12.45-16.57,23-34.49,39-48.41,8.74-7.62,17.67-15.86,20.9-28.05.79-3,0-3.86-2.6-3.45-3.61.56-7.57,1-10.05,3.92-7.78,9.13-18.08,15.94-24.72,26-11,16.73-24,31.94-36.13,47.84C245.23,359.39,240.92,374.45,233.57,388.08ZM268,171c-13.57-1.34-23.64,6.73-34.25,13.06-2.52,1.51-4.34,5.75-1.34,7.54,5.09,3.07,10.35,6.72,17,5.87,7.82-1,15.6-.78,23.15,1.84a6,6,0,0,0,3.87-.07,31.19,31.19,0,0,0,19.64-16.54c1.88-3.75,3.25-8.15,0-11.73s-8.15-4.27-12.49-2.48A35.49,35.49,0,0,1,268,171Zm515-19.38c-.29-6.79-2.48-10.48-6.81-10.55-5-.07-10,.71-14.34,3.59-2.36,1.58-4.56,3.34-7.39,4-9.29,2.31-17.18,7.52-24.31,13.42-5.93,4.91-12.85,10.26-9.8,20.05a4.16,4.16,0,0,1-.83,3.27c-4.67,5.58-2.1,11,.39,16.27.84,1.78,2.35,3.53,4.57,3.39s3.08-2.32,3.77-4.2c1.69-4.64,1.36-9.52,1.64-14.34A14,14,0,0,1,742.74,173a36.89,36.89,0,0,0,15.67-4.51,42.16,42.16,0,0,1,14.13-4.71C778.63,162.78,783.18,157.18,782.94,151.57ZM424.74,894.65c-.52-3.28-.85-6.61-1.66-9.83-.44-1.75.2-4.92-3.45-4.2-2.92.57-5.38,1.62-5.78,5.15a85.88,85.88,0,0,1-1.69,11.34c-1.56,6.2-1.74,12.44-2,18.78-.54,15.58,3.94,30.61,4.42,46.05.12,4.07,6.77,10,10.55,9.94s7-4.49,7.28-10a12.14,12.14,0,0,0,0-2c-1.16-9.92-2.2-19.86-3.55-29.76C427.28,918.36,423.74,906.79,424.74,894.65ZM290.3,151.09c4.7-.07,9.22-.25,11.54-4.81,1.8-3.53,3.7-7.16,4.21-11.14,1-7.57,4.47-13.81,9.44-19.4,2.58-2.91,5.47-6.39,4.87-10.07-1-6.32,2.18-8.76,7-10.66,1.54-.61,3.05-1.3,4.59-1.9.91-.36,2.12-.47,1.9-1.82s-1.4-1.31-2.33-1.52a7.35,7.35,0,0,0-7.69,2.37c-3.74,4.48-8.92,6.59-14.14,8.31-16.21,5.34-25.49,17.38-31.44,32.41-1.21,3.06-3.79,6.84-1.26,10.4C280.27,147.85,284.23,151.66,290.3,151.09Zm476.29-22.53a35.11,35.11,0,0,0,9.84-2.84c3.58-1.47,6.13,1.94,9.34,2.38,1.42.2,1.89-.78,1.59-1.82-2.14-7.72-2-16.62-9.93-21.52-4.29-2.64-8.15-7.21-13.25-7-5.46.21-11.1.42-16.49,3-6.63,3.18-12.26,7.93-19,10.9-3.37,1.49-3.31,4-1,6.86,5,6.12,10.4,10.38,19,7.68,2.43-.76,5.29,0,8-.12C759,125.94,762.76,128.07,766.59,128.56Zm239,90.72a43.53,43.53,0,0,1,0-5c1.43-12.28-2.57-23.26-7.92-33.94a13,13,0,0,0-7-6.77c-7.27-2.8-12.39.92-11.87,8.66a19.38,19.38,0,0,0,2.61,9,30.88,30.88,0,0,1,4.38,17.13,48.35,48.35,0,0,0,1.22,12.37c2.76,10.57,5,21.49,13.39,29.52.83.78,1.61,2,2.9,1.56,1.54-.53,1.39-2.11,1.41-3.42C1004.93,238.72,1007.58,229.07,1005.6,219.28ZM65.44,202.92c-4.63.21-8.35,1.27-10,4.73-1.22,2.54,1.2,4.82,3.43,6,6.33,3.25,12.5,6.7,19.58,8.52a67.63,67.63,0,0,1,18.47,7.27c6.56,4,14,6.45,19.39,12.38A6.55,6.55,0,0,0,119,243c5.65,2,12.26-.74,15.22-6.31,2.21-4.14.42-12.42-4.26-14.54-7.06-3.2-14.31-7.14-22.19-6.94-9.32.23-17.58-2.63-26.12-5.52C75.83,207.76,70.91,203.68,65.44,202.92ZM609.56,104a33.53,33.53,0,0,0,5.09-.9c5.29-1.6,5.76-3.23,2.3-7.54-3.27-4-4.05-9.88-9.33-12.59a2.31,2.31,0,0,1,.19-4.14c1.91-1.12,2.58.56,3.37,1.84,1,1.53,1.31,3.81,3.07,4.42,6.08,2.13,10.4,7.07,16.13,9.75,2.82,1.32,5.4,3,8-.18s3.48-6.55.71-10c-3.64-4.49-7.46-8.84-11.27-13.18-3.29-3.75-6.83-4.08-10.94-1-3.9,2.93-8.23,4.82-13.4,3.84a56.52,56.52,0,0,0-10.34-1.2c-4,0-7.71,1.67-7.35,6.25.51,6.41.63,12.94,2.66,19.19a5.66,5.66,0,0,0,5.44,4.29C598.67,103.3,603.47,103.6,609.56,104Zm-390,261.32c1.8-2.19,3.49-3.59,4.06-5.78,2.56-9.79,9.36-17,15.45-24.47,7.22-8.9,15.43-17,20.68-27.41,1.87-3.7,2.84-8.05,5.36-11.2,10.67-13.39,20.81-27.29,33.87-38.6,2.45-2.13,6.6-5.2,4.67-7.77-2.47-3.28-6.34.19-9.1,2.09-8.68,6-16,13.55-24,20.31-.63.54-1.65,1.15-1.29,1.94,1.34,3-1,4.25-2.58,5.79a38,38,0,0,0-7.1,10.19,72.76,72.76,0,0,1-11.2,16.46c-9,10-18,20.07-24,32.31C220.32,347.3,216.46,355.27,219.56,365.35Zm565-139.66c.21,3.29.2,5.13.48,6.93.33,2.1.44,4.74,3.29,4.87a5.3,5.3,0,0,0,5.29-3.85,28.29,28.29,0,0,0,1.72-5.2c.78-4.79,3.2-7.42,8.28-7.58,4.46-.13,7.71-2.39,10.18-6.21s4.83-7.9,8.76-10.77c6.3-4.6,6.61-9.08,1.72-16.85-3.35-5.32-8-6.36-14.25-3.76-5.52,2.3-9.25,7.06-14.37,9.82a9.65,9.65,0,0,0-5.3,6.3C788.22,208.59,786.28,217.83,784.56,225.69ZM103.05,191.74c4.65-.31,9.34-.37,13.94-1,3.43-.49,6.73-1.84,10.12-2.64s3.06-1.93.72-3.74-5-4.07-4.94-7.2c.07-5.78-3.13-7.31-8-7.93-4.26-.53-6.67-2.84-5.3-7.63a6.29,6.29,0,0,0-.45-5.35c-4.24-6.08-9.32-11.39-16.28-14.24-4.37-1.79-8,.71-7.65,5.37,1.09,14.7.77,17.11,15.5,16,1.79-.14,3.54.11,4.17,1.95.79,2.31-1.13,3.39-2.75,4.08-4.63,2-9.61,2.6-14.51,3.57-4.32.85-6.4,5.11-3.79,8.18C88.8,187,94.18,192.68,103.05,191.74ZM997.32,922.85a30.26,30.26,0,0,0,4.15-2.49c7.37-6.2,15-12.19,21.4-19.39,5.58-6.26,13-10.93,16.3-19.23,1.89-4.7,1.76-6.14-3.18-7.62-2-.6-3.83-1.31-5-3-2.68-3.91-5.51-3-8.91-.85-6.84,4.35-11.59,10.88-17.53,16.14-4.75,4.21-6.44,9.48-6.87,15.47a31,31,0,0,1-.35,4c-.8,4.1-1.21,8.53-7.37,7.73a2.89,2.89,0,0,0-3.4,2.31c-.24,1.74.92,2.67,2.34,3.44C991.63,920.81,995.5,919.15,997.32,922.85ZM817,127.37c-8-.79-12.3,3.23-17,5.63-6.7,3.42-6.52,4.19-3.54,11.22a16.34,16.34,0,0,1,.92,2.31c2.09,8.07,5.4,9.93,12.76,6.43,3-1.42,5.65-1.83,8.53-.64,5.53,2.27,11.06,1.42,16.69.54,3.26-.51,5.07-3.56,8.48-3.94,4-.44,5.86-3.28,6-7.35.26-7.27-3.88-12.53-11.59-12.89S822.67,129,817,127.37Zm272.49,638.48c-12.51-.14-30.37,12.92-35.48,25.49-1.32,3.22-2.35,6.73-4.4,9.45-5.32,7.06-6.64,15.45-8.66,23.63-.34,1.38-.69,3.41,1.19,3.82,2.1.46,2.94-1.58,3.09-3.16.59-6.5,5-11.06,7.94-16.4.88-1.62,2.07-3.2,4-3.62,7.74-1.75,13.72-6.14,19.3-11.61a24.25,24.25,0,0,1,11.94-5.93,16.55,16.55,0,0,0,8-3.76c1.24-1.17,2.42-2.46,1.92-4.32-.87-3.19-1.89-6.33-2.85-9.5S1092.27,765.49,1089.52,765.85ZM331,140.78c-.27,4.82,1,7.91,3.37,10.35a11,11,0,0,1,3.68,7.72c.24,4.36,5.46,7.06,8.43,4.33,6-5.51,12.1-11.65,10.6-20.76-1.11-6.77-.15-12.39,4.2-17.7,2-2.41,3.76-5.34,1-8.55s-6.47-4-9.9-1.91c-9.52,5.86-17.15,13.55-21,24.35A6.2,6.2,0,0,0,331,140.78Zm774.32,160.36c-3.23-.25-6.12.35-7.75,3.41s-.65,6.19,1.41,8.81a25.67,25.67,0,0,1,4,7.37c2.74,7.64,17.19,13.13,24.5,9.45a3.09,3.09,0,0,0,.82-.57c2.1-2.25,4.86-3.3,7.64-4.49,4.81-2,5.87-6.08,5.69-11.06-.17-4.6-2.76-6.31-6.5-7.6C1125.52,303.1,1115.28,303,1105.36,301.14Zm1.5,306.24c.44,2.82.89,5.76,1.37,8.71.44,2.65,1.67,3.26,4.52,2.79,6.16-1,9.72-4.81,12-10.07,3.44-8.07,8-15.19,14.77-21,5.09-4.32,4.25-9.83-1.55-14.78-4.08-3.48-10-2.64-13.52,1.86-2.27,2.85-4.12,6.46-7.06,8.28C1108.12,589,1107.91,598.15,1106.86,607.38Zm-34.21-221c0-.41,0-1.08,0-1.74-.11-1.27.52-3.07-1-3.53-1.86-.53-2.59,1.47-3.06,2.67-1.66,4.29-6.07,7.73-4.12,13.23a2.53,2.53,0,0,1-1.41,3.36c-1.76.61-2.83-.58-3.56-2-1.46-2.79-2.76-5.68-4.28-8.44-3.58-6.51-8.41-12.19-11.17-19.35-1.34-3.48-5.68-7.47-9.53-7.78s-4.93-2.06-6.63-4.23c-.72-.9-1.2-2.11-2.1-2.72-1.23-.83-3,.4-2.24,1.21,3.28,3.73,1.86,9.48,6,12.78,5.52,4.46,9.3,10.24,12.62,16.49,3.42,6.45,5.33,13.78,10.06,19.41s9.82,10.74,11.29,18.37c.35,1.77,2.13,3.32,3.44,4.82,1.54,1.77,3.49,3.94,5.81,1.66s1-4.59-1-6.52c-.72-.68-1.4-1.42-2.17-2-3.06-2.47-3.88-6-1.93-8.92C1073.13,404.92,1071.51,395.58,1072.65,386.4Zm-215-217.27a89.11,89.11,0,0,0-25.19,4.39c-1.38.47-3.13.89-3.22,2.7s1.46,2.83,3,3.51c.91.4,1.85.74,2.78,1.1,2.92,1.12,5.44,2.08,4.14,6.39-1,3.19,1.46,4.15,4.22,3.11,2-.76,3.58-.89,5.55.38,7,4.5,17.74,4,24.43-.82,3.88-2.81,5.6-7.34,3.34-10.82C871.71,171.36,871.07,168.32,857.63,169.13ZM564.87,66.82v-.06a59.25,59.25,0,0,0-7,.67c-2.43.51-4.77,1.34-5.36,4.4-1.89,9.81-1.89,19.49,1.61,29,.56,1.5,1.43,2.89,3.06,3,4.92.18,9.85,1.69,14.79-.25s6-3.83,4.3-8.75c-.49-1.41-1.47-2.71-1.08-4.28,1.78-7.09-.8-13.84-1.5-20.74-.28-2.79-1.84-3.72-4.4-3.46C567.84,66.43,566.35,66.63,564.87,66.82Zm-418.48,940.3c5.71-1,11.65-1.12,16.4-5.14,3.57-3,3.53-6.88-.53-9.36-3.69-2.25-7.54-4.4-12.21-3.08-2.87.82-4.42-.67-5.23-3.21-.46-1.42-.8-2.87-1.17-4.32-1.36-5.47-4.91-7.52-10-5.43a22.33,22.33,0,0,1-7.74,1.51,41.24,41.24,0,0,0-8.33,1.35,4.65,4.65,0,0,0-3.48,3.89c-.33,2,1.11,2.92,2.59,3.82,2.85,1.75,5.83,3.68,7.41,6.55,1.79,3.28,3.8,3.92,7.26,3.26a8.28,8.28,0,0,1,9.86,6.64C141.93,1006.64,144,1007,146.39,1007.12Zm477.66-85.91c12.63.41,24.67-3.46,36.92-5.55,14.07-2.4,27.88-6.4,41.72-10,11.45-3,22.11-8.24,33-12.7,1.36-.55,3.58-1.25,2.62-3.48-.88-2-2.49-2-4.56-1.1-5.93,2.59-11.95,5-18,7.26-8.83,3.3-17.34,7.33-26.88,8.81-9.87,1.54-20.07.61-29.66,3.84-7.18,2.42-14.59,3.22-22.06,3.89-7.06.63-14.18,1.07-20.66,4.54-1.37.74-3,1.27-2.74,3s2,1.44,3.27,1.49C619.38,921.27,621.71,921.21,624.05,921.21ZM817.73,85.59c.07-10.51-9.39-20.5-19.23-20.76-5.12-.13-8.14,3.45-11.71,5.88-4.15,2.83-4.24,6-.51,9.44,6.16,5.76,12.61,11.21,18.91,16.83a3.73,3.73,0,0,0,3.62.8C816.34,96.39,817.67,94.66,817.73,85.59ZM355.16,1013.07c9.09-.85,16.79,1,24.53.4,6.76-.56,13.49-1.42,20.27-1.7,7.54-.32,11.08-3,10.75-8.12-.39-5.79-4.08-8.55-10.45-7.59q-10.61,1.59-21.16,3.47c-2.74.49-6.06.46-7.72,3-2.15,3.23-5.1,3.42-8.28,3.33a127,127,0,0,0-16.43,1c-1.11.12-2.74,0-2.81,1.43-.1,1.87,1.74,1.76,2.95,1.79,4.56.09,9.11,0,14.46,0C359.26,1011.68,357.47,1010.47,355.16,1013.07Zm251.6-25.68c.09-6.95-.59-8.6-5-9-9.92-1-19.08-3.27-26.8-10.29-3.41-3.1-7.4-.75-7.36,3.92,0,3.83.46,7.89,3.27,10.73,7,7.1,15.39,12.24,25.28,14C604.11,998.1,606.66,995.47,606.76,987.39ZM515,94.18c.14,2.51-1,5.3,1.63,7A15.2,15.2,0,0,0,530,103c4.53-1.58,9.12-4.52,9.35-10,.24-5.75.54-11.63-1.31-17.29-2.29-7-8.75-8.48-13.7-3C518.78,78.78,516.77,86.44,515,94.18Zm821.15,420.49a16.23,16.23,0,0,0,.37,8.84c2.4,8.3,3.12,16.9,4.5,25.39,1,5.87.69,12.64,6.17,16.61,4.17,3,5,5.32.74,8.75-2.31,1.88-1.32,4.68-1,7.06.4,3,2.25.36,3.4.6a2.78,2.78,0,0,1,2,1.34c.62,1,.16,3.43,2.12,2.52s.87-2.78.13-4.33c-1.7-3.58-.63-10.46,2.36-13,2.56-2.14,3-4.48,2.33-7.5a32.39,32.39,0,0,0-4.62-10.93c-4.5-6.72-6.81-14.51-10.12-21.8C1342.32,523.51,1341.78,518,1336.14,514.67ZM894.59,152l0,.18c-1,0-2-.05-3,0-4.74.26-9.59.58-11.6,5.9s-.33,10.76,5.11,14.31,9.84,8.57,16.74,9.32c1.71.18,3.55,2,5,.14s.6-4.11-.62-6c-3.53-5.45-3.94-10.58.6-15.9,2.86-3.36,1.43-6.42-2.85-7C900.88,152.5,897.73,152.28,894.59,152ZM296.2,214.13c-5.63.27-11.59.92-13.76,6.94-1.72,4.81,1.22,9,5,12.21,6,5.15,25.16,3,30-3.37,2.06-2.72,1.84-5.48-.83-7.48C310.52,217.92,304.29,213.72,296.2,214.13ZM541.28,997.26c0-4.23-3-6.55-6.51-7-9.6-1.3-19.55.32-28.83-3.59-2.18-.92-4.67-1.33-6.53.67s-.25,4,.39,6c.94,3,5.14,4.57,4.95,7.17-.31,4.31,2.44,4,4.73,4.67,8.8,2.53,17.39-.83,26.08-1.18C539.29,1003.85,541,1000.56,541.28,997.26ZM211.8,242a54.19,54.19,0,0,0,0,6,59.76,59.76,0,0,0,1.33,7.38,15.08,15.08,0,0,0,12.83,11c2,.16,3.69-.06,2.61-2.58-1.64-3.88-.13-7.26,1.51-10.49,1.08-2.12,1.17-3.47-.59-5.23-2.09-2.1-2.75-4.84-.32-7.07,4.13-3.8,2.32-7.15-.45-10.41s-6.28-4.54-10.57-2.36C212.35,231.17,210.92,236,211.8,242Zm809.88,549.86c7.07.07,14.15-6.09,12.71-10.94-2-6.76,1.51-10.29,5.91-13.86a50.64,50.64,0,0,0,4.19-3.52c1.62-1.64,3.8-3.58,2.59-6-1.36-2.69-4.39-1.52-6.78-1.44a7.27,7.27,0,0,0-1.88.62c-6.91,2.33-11.83,7.11-15.78,13-1,1.55-1.72,3.45-4.13,2.2-1.4-.73-2.74-2.35-4.33-.47a4.78,4.78,0,0,0-.67,5.6c1.41,2.54,1.76,5.31,2.49,8C1016.94,788.65,1018.5,791.76,1021.68,791.89ZM428,882.14a14.68,14.68,0,0,0,7.1,16.58,123.77,123.77,0,0,0,21.62,8.76,44.15,44.15,0,0,0,15.19,2.28c1.46-.06,3.25.28,3.94-1.4s-.79-2.75-1.66-3.91c-2.9-3.89-7-6-11.46-7.52A351.45,351.45,0,0,1,428,882.14Zm103.82-844c-2.22,0-4.09-1.43-6.34-.65-10.68,3.69-21.42,7.18-30.49,14.32-4.17,3.28-8.61,6.25-12.65,9.69-2.81,2.38-3,5.71-.64,8.48s5.28,2.4,7.76-.25c1.82-1.94,4.15-1.81,6.49-1.89,4.63-.15,8-2.28,9.5-6.74a22.79,22.79,0,0,1,11.87-13.45C522.46,45.09,527.86,42.91,531.85,38.15ZM770.53,225.8c5-.1,6.25-2.39,5-7.07-2-7.08-7.27-10.73-13-14.22-10.15-6.18-10.12-6.22-19.58,1.1-4.66,3.6-4.21,6.65,1.18,9.26,6.1,3,12.6,5,18.44,8.61A13.74,13.74,0,0,0,770.53,225.8Zm252-173.45c-3.22,0-5.06-.13-6.87,0-9.71.81-19.67-.61-29.05,3.18-1.11.45-3,.11-3,2,0,1.31,1.41,1.95,2.43,2.26,4.57,1.39,9.08,3.54,14,3,17.67-1.88,35.4-2.55,53.15-2.79,1.56,0,4,.65,4.12-1.47.12-1.61-2.09-2.22-3.77-2.58C1042.89,53.7,1032.13,52.2,1022.56,52.35Zm.89,418.53c-.62-4.78-1-9.45-1.89-14-1.23-6-2.83-11.95-4.46-17.87-.4-1.45-1-3.81-3.08-3.14-1.89.61-.58,2.6-.35,4,.88,5.24,2.35,10.5,1.68,15.82-1.68,13.18.38,26.27.76,39.39.16,5.44.26,10.59-2.2,15.53-1.63,3.26-2.13,7.75.93,8.89,3.23,1.22,5.66-2.89,6.36-6.14,1.23-5.66,2.63-11.28,2.59-17.21C1023.74,487.64,1021.6,479.2,1023.45,470.88Zm-12.05,82.21a23.73,23.73,0,0,0,13.33-5.6c3.23-2.57,3.2-5.9,2.65-9.49-.12-.73.56-1.55.67-2.35.29-2.15,2.25-5.77-2.91-3.45-1,.47-1.73-.63-2.48-1.28-8.38-7.16-6.93-8-15.83.22a30.56,30.56,0,0,0-3.21,3.12c-3.3,4.17-3.74,8.62-1.34,13.47C1004.26,551.73,1007.76,552.66,1011.4,553.09ZM269.13,241c-.65-6.69-3.68-12.92-12.67-15.26-4-1-7.18-.2-9.95,2.77a9.66,9.66,0,0,0-2.4,10.12c.6,1.9,1.37,3.74,2,5.64,1.91,6,7.69,9.4,14.5,8.51C265.61,252.13,269,247.45,269.13,241Zm369.66,793.76c3.32,0,6.66.14,10,0,2.24-.13,5.33.17,6-2.42s-2.13-3.89-3.89-5.27a13.69,13.69,0,0,0-8.31-3c-8.09-.13-15.59-3.21-23.35-4.88-4.39-.94-7.59.22-10.71,2.22-2.91,1.87-2.64,5-.38,7.28a12.72,12.72,0,0,0,7.82,4.1C623.58,1033.39,631.06,1035.52,638.79,1034.77Zm-196.43-28.58c.38-1.28-.39-2-1-2.78-.78-1.07-2-2.18-1-3.49s2.11-.06,3.07.42a3.34,3.34,0,0,0,3.71-.26c3-2,3.23-5.76,4.4-8.57.79-1.89-3.47-.62-5.26-1.51-.59-.3-1.36-.32-1.84-.73-5.16-4.38-11.9-5.69-17.58-9.07-4.79-2.84-9.24-.39-9.18,5.19,0,4,.76,8.24,4.07,10.87C427.85,1001.06,434.19,1005.59,442.36,1006.19ZM658.91,115.72c7.4-.15,10-.88,13.07-3.6,4.79-4.19,4.44-7-1.41-9.27-3.54-1.39-6.39-3.19-8.19-6.73-1.47-2.9-4.27-4-7.51-3.87-4.54.17-10.26,5-11.42,9.74-1,4,1.53,9.05,5.89,11.68A15.79,15.79,0,0,0,658.91,115.72ZM270.82,930.18c8,.09,13.67-1.65,19.46-2.22,2.19-.22,3.84-1.24,4.11-3.63s-1.1-3.87-3-4.76a26.32,26.32,0,0,0-17.23-1.35,50,50,0,0,1-14.55,1.19c-5.45-.22-10.85-2.06-16.37-.54-1.95.54-3.42,1.61-3.79,3.55-.44,2.29,1.7,2.53,3.13,3.2C252.26,930.14,262.9,928.31,270.82,930.18ZM199.5,243.72c-.51-7.83-2.53-14.35-4-21a2.86,2.86,0,0,0-1.81-2.23c-5.11-1.7-9.5.55-13.65,3-3.16,1.84-4.06,5.05-3.54,8.67,1.43,10.11,6.31,15,16.41,16.4C197.16,249.16,199.53,247.05,199.5,243.72ZM338,216.33c7-.6,12.13-4.32,13.2-11,.53-3.25-2.69-9.36-5.17-9.75-9.69-1.5-17.45,1.68-23.37,9.52-1.87,2.48-2.11,4.74.11,7.1C326.38,216,330.75,217.35,338,216.33Zm242.72-83.41c-3,0-6-.09-9,0-1.37.06-3.55-.18-3.36,1.95s2.23,1.31,3.64,1.34c8.64.18,17.24-.63,25.93.18,16.39,1.53,32.84,2.41,49.27,3.44,2,.13,5.11.54,5.6-2,.56-2.86-2.91-3-4.69-4.28a3.51,3.51,0,0,0-1.45-.32c-16.46-2.92-33-4.07-49.66-2.18C591.61,131.73,586.31,133.46,580.75,132.92Zm524.53,626.35a12.36,12.36,0,0,0,4.16-6.7,141,141,0,0,1,6-19.32c2.89-7.35,5.41-14.61,6.25-22.43.13-1.19,1.45-2.74-.2-3.57-1.28-.64-2.39.8-3.6,1.27-4.92,1.92-5.76,6.78-7.66,10.78-4.07,8.54-7.16,17.43-7,27C1103.28,750.38,1104.47,754.44,1105.28,759.27ZM465.5,208.62c-.15-4.07-1.47-6.74-4-9-4.31-3.69-9.79-4.6-14.85-6.45-2.07-.75-4.65-.26-5.46,2.19s-1.54,5.38,1.3,7.22c3.6,2.33,5.38,4.84,3.58,9.48-1.61,4.17.49,6.45,5,5.94a62.79,62.79,0,0,0,9.19-2.15C464.29,214.8,465.4,211.63,465.5,208.62Zm-102.82,36.7c4.83,0,8.19-1.5,9.92-6.59.95-2.8,1.1-7.13,2.85-8.13,4.25-2.43,6.79-6.79,11.28-8.75,5-2.18,9.84-4.75,14.83-7a6.07,6.07,0,0,0,3.38-4,2.28,2.28,0,0,0-.83-2.66c-.78-.62-1.54-.33-2.3.11-13.53,7.95-28,14.21-40.1,24.69-3,2.64-3.25,6.25-5.52,9-.88,1.06.54,2.2,1.62,2.53A39,39,0,0,0,362.68,245.32Zm2.12-105.48c.46,5.34,4.52,9.51,10.15,12.31,5.08,2.53,8.45.27,7.47-5.29-.72-4.09-1.11-8.17-1.45-12.27-.25-2.93-1.15-6.05,2.29-8a1.92,1.92,0,0,0,.64-2.65,2.71,2.71,0,0,0-2.85-1.54C374.78,122.44,364.77,132.28,364.8,139.84ZM355.2,271c2.35.08,4.5-.52,4.92-2.74s.37-5.28-2.41-6.37c-2-.79-4-1.75-4.24-3.75-1-6.83-5.59-9.47-11.43-11.58-5.56-2-8.2-.55-8.25,5.57a8.05,8.05,0,0,0,1.7,5c3.17,4.38,7.7,7.23,11.74,10.57C349.39,269.49,352.18,271.1,355.2,271ZM631.77,994.28c2.4-.39,5.18-.82,8-1.28a10.68,10.68,0,0,0,1.93-.48c6.25-2.3,8.15-6.92,4.59-12.07-2.15-3.12-1.15-5.29,1.2-7.32,2.88-2.49,6-4.69,8.82-7.24,1.08-1,3.57-2,2.15-3.78-1.28-1.59-3.23-.34-4.87.71-6.2,4-10.65,10.24-17.5,13.43-1.36.63-2.35,2.31-3.23,3.68-1.67,2.65-3.09,5.46-4.73,8.13-.83,1.36-2.69,2.45-1.57,4.29S629.51,994.24,631.77,994.28ZM1069,558.48c-.1,4.58,4.2,9.28,9,9.58,3.18.2,6.31.28,8.78,2.69,3.49,3.41,6.8,2.12,9.48-.88s1.48-6.74-1.33-8.7c-5-3.48-10.09-7-16-8.78C1073.93,550.87,1069.07,554.18,1069,558.48ZM900.33,992.54a11.08,11.08,0,0,1-8.07-3.36,3.17,3.17,0,0,0-3.24-.68c-4.95,1.22-10.08,1.46-14.93,3.34-6.28,2.44-12.72,4.47-19.11,6.6-2.47.83-2.55,2.9-2.61,4.85,0,1.31,1.14,1.43,2.2,1.26,9.3-1.47,18.65-2.72,27.89-4.51C888.77,998.83,894.45,995.73,900.33,992.54ZM753.77,81.71c5.51-1.45,11.9-1.67,17.64-4.46a5,5,0,0,0,3.14-4.7c0-2.22-1.73-2.78-3.34-3.77-5.39-3.34-11.47-.58-17-2.28-2.77-.84-5.71-.78-7.68,1.9s-2.61,5.76-1.06,8.9S749.77,81.71,753.77,81.71Zm177.32,975.07c2.81-2.85,4.17-2.35,4.63,1.14.17,1.32.15,2.67.4,4s.79,2.47,2.2,2.23.84-1.61.81-2.52c-.1-2.7.61-5.27,1-7.89a164.25,164.25,0,0,0,2.17-27.3c0-2.37-.53-4.65-2.53-6.27-2.16-1.75-3.83-2.15-4.4,1.36s-.62,7.08-2,10.15C929.8,1039.77,930.83,1048.13,931.09,1056.78ZM161.65,242.85c2,.12,3.71.29,5.37.3,2.63,0,3.59-1.28,1.78-3.35-5.09-5.83-9.48-12.53-18.08-14-3.76-.66-7.3-.72-9.3,2.74s-.6,7.17,2.11,10a10.51,10.51,0,0,0,6.64,3.2C154.13,242.1,158,243.59,161.65,242.85ZM500.49,96.12c-1.35-3.54.88-5.13,2.48-6.93,2.26-2.53,1.21-5-.25-7.27a5.15,5.15,0,0,0-6-2.51c-3,.76-3.08,3.31-2.93,5.59.28,4.41-1.51,8.47-1.85,12.75-.52,6.55,4.82,11.74,10.29,10,3.94-1.3,5.93-4.71,7.49-8.19a5.79,5.79,0,0,0-2.69-7.71c-2.79-1.57-4,1.2-5.14,3.21C501.7,95.37,501.21,95.58,500.49,96.12Zm196.35,94c2-.21,3.18-.3,4.34-.45,3.31-.43,6.74-.4,6.55-5.45-.17-4.65-2.88-5.87-6.73-6.34-2.3-.27-4.56-.82-6.84-1.26-3.31-.63-6.51-1.27-9.11,2-1.58,2-3.75.8-5.5-.07s-1.7-2.24-.29-3.59a1.34,1.34,0,0,0,.08-2.16c-.9-.85-1.77-.49-2.68.09-4.25,2.69-4.18,8.46.63,10.95C683.65,187.08,690.78,188.26,696.84,190.08ZM1046.09,552c.21-7.41-1.39-10.38-5.9-11a10.67,10.67,0,0,0-11.79,9.5c-.53,7.26,7.3,14.19,14.63,13,4-.66,5.21-2.8,3.66-6.68A7.9,7.9,0,0,1,1046.09,552ZM1082,527.58c3.72-.06,10.08-5.43,9.24-8.31-1.14-3.94-2.66-8.14-7.28-9.42-4.92-1.35-9.9-1.75-14.18,1.93-1.52,1.3-1.8,3-1.37,5C1069.89,523.66,1074.87,527.69,1082,527.58Zm-76.08,170c2.7.09,4.33-1.41,5.52-3.6s2.07-3.89,0-6.28c-2.67-3.13-4.81-6.73-7.18-10.13a3.53,3.53,0,0,0-3.47-1.47c-8.13.6-11.69,8-7.17,14.85C996.6,695.35,1001,697,1005.92,697.55ZM788.29,991.74c3.72-.36,6.2-.54,8.67-.86,1.65-.22,3.26-.66,4.9-.93s2.75-1.05,1.49-2.61c-2.36-2.92-.92-4.83,1.34-6.71,1.24-1,2.18-2.2.93-3.81s-2.84-1.47-4.22,0c-2.36,2.43-5,2-7.85,1.06a15.88,15.88,0,0,0-4.37-.84c-4.4-.17-9.2,3.85-9.07,7.45S785.35,991.9,788.29,991.74ZM709.79,96c-.1,5.49,2.83,9,7.32,9.1,4.11.1,5.5-1.81,5.52-8,0-3.45.08-6.37,4.42-7.68,3.17-1,2.89-4,1.73-6.72-1.41-3.29-3.94-2.79-6.18-1.43A75.55,75.55,0,0,0,713.34,88,9.32,9.32,0,0,0,709.79,96ZM1012.14,740.6c6.74-.34,12.31-3.26,8.75-11.78-.73-1.76-.76-3.23.53-4.56,1.92-2,2.38-4.69,3.67-7,.79-1.38,1.92-3.2.16-4.47s-3.66-.69-5.28,1c-5.88,6.07-9.49,13.3-11.92,21.35C1006.74,739.5,1008.67,740.45,1012.14,740.6ZM449.37,965.35c.07,6.09,4.54,11,9.86,10.85,7.11-.21,10.47-7.83,7-15.76-1.25-2.91-2.76-4.42-6-2.49-1.69,1-3.59,2-5.6,1.77C450.12,959.1,449.27,961.71,449.37,965.35Zm-293.71-757c-.5-5.18-3.17-10.2-5.54-15.31-.61-1.31-2.11-1.75-2.71-.37-2.61,6.08-5,12.27-7.33,18.46-.18.48.32,1.25.55,1.87,1.44,4,4.69,4.44,8.17,3.83C153.1,216.05,155.53,213.42,155.66,208.31ZM252,1018.89c-.46-2.27-.92-4.55-1.4-6.82-.56-2.64-1.73-3.08-3.63-1a37.77,37.77,0,0,0-3.09,3.25c-2.66,3.73-5.66,2.79-8.51.53a42.61,42.61,0,0,1-4.78-5.07c-1-1.09-2.08-1.77-3.45-.71s-.38,2.07.3,3c3.29,4.39,6.48,8.86,9.94,13.11,1.88,2.29,4.39,5.16,7.56,3.25C248.26,1026.36,252.21,1024.06,252,1018.89ZM1074.73,654.2c5.9,0,10.77-4,10.68-8.74-.08-4-5.19-8.34-9.71-8.23s-8.79,3.72-8.91,7.76C1066.62,650.78,1069.55,654.17,1074.73,654.2Zm-30.24,82.09c.31,3.54,1.13,6.93,5.71,7.17,4.12.21,6.32-2.2,6.42-7a15.15,15.15,0,0,1,1.72-7.12c1.64-3,1.57-6.38-1.42-8.43s-5.84-.1-7.71,2.35A22.11,22.11,0,0,0,1044.49,736.29ZM1238.56,256c-1.9.21-4.33-.46-4.94,1.68-.66,2.34,1.72,3.24,3.32,4.38,9.83,7,22.25,8.55,32.08,15.52,1.12.79,2.6,1.27,3.59-.08,1.2-1.62-.37-2.3-1.45-3-6.07-4.05-12-8.33-18.27-12.06C1248.37,259.68,1243.91,256.59,1238.56,256ZM1043.88,594.17c5,0,8.36-3.55,8.48-9,.1-4.61-2.33-7-7.11-6.87-7.9.15-12.32,2.8-12.14,7.26C1033.28,589.62,1039,594.2,1043.88,594.17ZM199.21,177.09c2.94.61,5.35-.33,7.6-1.22,3.48-1.37,4.26-4.51,3.48-7.81s-3-5.1-6.57-4.54c-2.78.42-5.56.84-8.31,1.37-3.4.65-6,2.21-5.63,6.22.34,3.8,2.82,5.37,6.34,5.71ZM1153.69,556c.49-3.69-.83-6.37-4.47-7.37-3.88-1.06-6.89.56-8.82,4-2.85,5-1.53,9.37,4.16,14.26,3.8,3.26,6.69,2.44,7.92-2.47A80.7,80.7,0,0,0,1153.69,556ZM1030.75,667.86c2.71.12,4.54.15,6.27-.64,3.89-1.77,5.09-6.31,1.89-8.91s-6.41-5.75-11.82-3.74c-4.7,1.75-5.31,5.13-5.62,8.93-.33,4.17,3.35,3.28,5.7,3.87A25.4,25.4,0,0,0,1030.75,667.86Zm96.1-137.36c.33-5.59-2.57-8.74-8.58-8.9-3.79-.09-6.42,1.61-6.62,5.83-.21,4.45,5.08,10.89,9.13,11.11C1125.11,538.78,1126.48,537,1126.85,530.5ZM1045,642.4a9.51,9.51,0,0,0-7.28-5.67c-1.37-.26-3.52.36-3.15-2,.48-3.14-1.24-5-3.14-6.87-1.38-1.37-2.09-4.61-4.83-2.7-2.41,1.68-4.26,4.92-2.18,7.35,3.21,3.75,5.34,8.76,10.5,10.65,2.32.85,4.76,1.49,5.47,4.45a2.48,2.48,0,0,0,1.83,1.41c1.21.1,1.5-1.1,1.75-2C1044.29,645.7,1044.54,644.4,1045,642.4Zm-22.17-24.31c-1.06-1.25-2.94-1.79-3-3.76s.22-4.3-2.26-5-3.87,1.32-5.35,2.86a45.33,45.33,0,0,0-3.77,4c-2.35,3.11-1.5,11,1.22,12.41s6.73-.91,8.71-5.46C1019.32,621,1020.94,619.7,1022.81,618.09Zm-84.33-392c-.1-4.56-5.17-11-9.27-11.91a5.09,5.09,0,0,0-5.29,1.91c-1.44,1.65.45,2.57,1,3.83a48.9,48.9,0,0,1,3,7.8c.6,2.47,1.19,5,4.22,4.08C934.87,231,938.5,230.34,938.48,226.12Zm172.93,425.56c-.1,5.56,1.39,10.17,6.6,13,1.45.78,2.23,3.59,4.42,2,1.8-1.31.76-3.49.23-5.11-2-6.14-4.23-12.21-6.37-18.3-.28-.8-.62-1.59-1.66-1.52a1.86,1.86,0,0,0-1.61,1.66C1112.41,646.14,1111.94,648.92,1111.41,651.68Zm-144,140.4c.06,4.36,1.54,5.55,4.13,4.11,5-2.8,10.19-5.4,14.55-9.23,1.53-1.34,2.31-3.11,1.14-4.84-1.33-2-3.28-1.24-4.81-.09a23.56,23.56,0,0,1-9.27,4.38C969.85,787.16,967.12,789.34,967.4,792.08ZM189.79,198c5.54-.07,9.89-2.3,9.65-4.95-.18-2-6.65-7.71-8.63-7.58s-6.91,7-6.66,9.26C184.53,198.31,187.3,198,189.79,198Zm647.34-78.72c-1.57-2.83-.89-7.17-5-8.9-1.31-.56-10,4-11.13,5.62s.16,2.06,1,2.83c3.73,3.65,9,1.8,13.28,3.59C836.63,123,837.11,121,837.13,119.31Zm246.64,569.3c0,3.95,5,9,8.32,8.35,2.92-.57,4.13-3.34,4.13-6.06,0-5.09-2.48-8-6.14-7.91C1086.06,683.1,1084.08,685.28,1083.77,688.61ZM1055,696.79c2.78-2.56,6.56-4.14,8.21-8.41,1.19-3.07,1.16-5.08-2-6.4s-5.47-.26-6.73,2.89a61,61,0,0,0-2.48,7C1051.47,694.1,1051.74,696.18,1055,696.79ZM722.88,1066.27c-5,8.25-8.06,17.43-13.71,25.24a13.45,13.45,0,0,0-1.57,3.66c-.34,1-1.31,2.31.3,3,1.09.45,1.82-.58,2.37-1.4,1.67-2.46,3.25-5,4.93-7.42C720,1082.39,722.25,1074.6,722.88,1066.27ZM975.53,733.68c-.61,3.09.51,5.05,1.09,7.1s2,2.24,3.45,1.09c1.27-1,3.34-3,1.65-3.89-3.67-1.92-.19-2.57.25-3.6,1.09-2.57,1.16-4.8-1.24-6.71-1.07-.86-1.66-2.95-3.53-1.6-2.07,1.5-3,3.45-1.72,6.07A2.44,2.44,0,0,1,975.53,733.68ZM875.36,798.09c-8.54,9.13-19.69,15.35-27.77,24.87C859.19,817.2,867.55,807.88,875.36,798.09ZM439.8,253.31c.52-.45,1.2-.92,1.15-1-1.89-3.71,2.31-3.9,3.23-5.87s4.36-5.05.54-6.65c-2.79-1.17-5.34,2-7.16,4.32-1.48,1.89-3.39,4.06-.78,6.55C437.73,251.55,438.74,252.38,439.8,253.31Zm639.94,343.16c-.2-2-.36-3.91-2.8-4.18s-7.07,4-7,6.69c.11,2.94,2.06,4,4.65,4C1079.29,603.09,1078.5,598.92,1079.74,596.47Zm-60.43-9.21c0-.65-.76-1.92-2.88-2-3.13-.13-7.17,4.34-7.18,7.79,0,1.76.72,2.32,2.44,2.2A8.19,8.19,0,0,0,1019.31,587.26Zm389.23-43.66c-1.27-3.1-2.63-6.62-4.19-10.06a1.76,1.76,0,0,0-2.54-.82,1.85,1.85,0,0,0-.66,1.66c1.69,3.38,1,7.2,2.08,10.65.41,1.36.7,3.91,2.7,3.54S1408.19,546,1408.54,543.6ZM666.35,1031.75c7.79,1.6,15.64,1.11,23.49.87.84,0,1.72-.26,1.86-1.26s-.78-1.43-1.54-1.6a10.47,10.47,0,0,0-3.42-.36C679.94,1030.13,673.15,1031,666.35,1031.75ZM912.6,897.49c-2.88.87-3.9,3.68-5.56,5.85-1.19,1.55-1.6,3.31-.48,5a3.49,3.49,0,0,0,3.91,1.41c1.69-.35,2.7-1.46,2.42-3.16a9.22,9.22,0,0,1,1-6.6C914.53,899,914.44,897.75,912.6,897.49Zm181.75-153.93a5.78,5.78,0,0,0-5.44-4.25c-2.59-.1-3.64,2.1-3.86,4.34-.25,2.56,1.16,4.19,3.77,4.11A5.56,5.56,0,0,0,1094.35,743.56Zm-128.63,96a4.88,4.88,0,0,0-4.22,5.17c0,2.12.54,4.3,3.09,4.15,3.3-.19,3.94-3.1,4.33-5.69C969.25,841,968,839.79,965.72,839.52Zm-492-734.78c-.61-1.88,1.11-5.64-2.85-5.33-3.24.25-2.6,3.77-2.78,6s.8,4.45,3.63,4.15S473.72,106.8,473.67,104.74Zm43.45,779.84c3.43,2.7,6.59,3.6,9.61,4.75,1.76.67,3.48.15,4-1.71.63-2.19-1.32-2.86-2.89-3.16A23.06,23.06,0,0,0,517.12,884.58Zm599.1-322.7c3-.41,3.64-2.86,4.11-5.28.33-1.72-.09-3.52-2.26-3.62-3.22-.15-4.07,2.37-4.49,4.85C1113.26,559.69,1113.69,561.49,1116.22,561.88Zm-582,406.43c1.27-7.27,2.38-13.17-2.54-18.08A67.61,67.61,0,0,0,534.23,968.31ZM705.65,87.44c-.29-2-.85-4.54-3.89-4.79a2.77,2.77,0,0,0-2.87,3.3c.31,2.54,1.42,4.85,4.4,5.11C705.27,91.22,705.61,89.64,705.65,87.44Zm65.66,5.14c-1,.08-2.19-.6-2.65.7-.32.88.51,1.45,1.09,2a25.56,25.56,0,0,0,3.18,3c1.8,1.21,4,1.48,5.17-.6,1.25-2.28-.49-3.67-2.55-4.32A32.73,32.73,0,0,0,771.31,92.58Zm61.42,865.11c-2.47,0-3.44,1.18-3.41,3.13,0,2.62.65,5.09,3.78,5.51,1.57.21,3.28-.66,3.14-2.4A7.52,7.52,0,0,0,832.73,957.69Zm-576.93,83c-.56-2.23,0-5.58-2.92-6.44-1.72-.5-2.14,2.08-2.09,3.72.08,2.51.46,5.35,3.13,6.09C256.09,1044.71,255.38,1042.24,255.8,1040.74Zm834-310.9c-.56-1.32.3-4.21-2.36-3.82-2.44.35-1.64,3.23-1.9,5.07s.34,3.83,2.33,3.55C1090.14,734.3,1089.42,731.78,1089.77,729.84ZM839.26,84a4.47,4.47,0,0,0-3.6,4.57c0,1.79,1.12,3.32,3.13,3,2.6-.41,3.16-2.57,3.25-4.84C842.11,84.93,841.21,84,839.26,84ZM717.61,1058.7c-1.15,3.57-1,7.43-2.89,10.77-.42.76-.43,1.7.62,2,1.21.38,1.88-.45,2.24-1.42A15,15,0,0,0,717.61,1058.7ZM1054,508c-2.17.18-2.71,1.74-2.81,3.48s.14,3.54,2.36,3.69c2.42.17,3.16-1.49,3.08-3.56C1056.59,509.85,1056.17,508.25,1054,508ZM789.2,102.5c-1.47-2.34-3.91.85-5.68-.75-.73-.67-1.58.38-1.33,1.29a3.3,3.3,0,0,0,4.08,2.64A3.34,3.34,0,0,0,789.2,102.5ZM1336,750.39l2-12.67-1.24-.18C1336.07,741.77,1334.89,745.92,1336,750.39ZM797.28,110.13c-1.24-.1-1.49.69-1.42,1.55.15,1.9.78,3.63,2.79,4.21a1.28,1.28,0,0,0,1.54-1.48C800.05,112.43,798.68,111.22,797.28,110.13Zm274.47,640.41c-1.67.34-2.24,1.7-2.46,3.16-.17,1.19.2,2.56,1.68,2.35,1.76-.25,1.85-2,2.18-3.42C1073.39,751.6,1073.18,750.66,1071.75,750.54Zm160.73-265.1c-1.54,3-2.44,5.48-.85,8.19.15.26,1.1.42,1.24.25,1.77-2.08.25-4.35.28-6.54A8.11,8.11,0,0,0,1232.48,485.44ZM842.25,961.8a3.37,3.37,0,0,0-2.71-2.83c-1.4-.34-1.68.74-1.49,1.76.28,1.45.89,2.92,2.5,3.22C841.79,964.18,842,963,842.25,961.8Zm226.38-472.27c-1.16,0-1.69.56-1.61,1.52.15,1.79,1.38,2.52,3,2.64.94.06,1.74-.45,1.6-1.42C1071.37,490.59,1069.94,490,1068.63,489.53Z" transform="translate(-0.67 -1)"/><path d="M456.74,739.35C454,729,451.47,719.58,449,710.14Q435.72,658.72,422.4,607.3a10.56,10.56,0,0,1,.76-8.1Q503.79,443.1,584.31,287c.46-.88,1-1.72,1.79-3.19a31.66,31.66,0,0,1,1.34,3.24q17.94,64.38,35.87,128.75a10.13,10.13,0,0,1-1,8Q540.94,578.93,459.66,734.14C458.9,735.59,458.06,737,456.74,739.35Z" transform="translate(-0.67 -1)"/><path d="M578.75,738.82c-2.73-5.93-4.29-12-6.15-18-7.39-23.66-12.7-47.85-18.5-71.92a7.89,7.89,0,0,1,.93-5.72q41.57-81.86,83-163.75c1.65-3.27,3.87-3.38,6.8-3.41,3.57,0,2.86,2.81,3.17,4.58a605.12,605.12,0,0,0,21.09,83.56,6.78,6.78,0,0,1-.35,5.73Q624.35,653.66,580,737.44A9.64,9.64,0,0,1,578.75,738.82Z" transform="translate(-0.67 -1)"/><path d="M642.71,687.77a44.75,44.75,0,0,1,1.83-13.56c3.24-11.26,10.62-18.22,21.88-21.06a54.36,54.36,0,0,1,28.17.19c13,3.63,22,11.7,25,25.21,3.36,15.28.71,29.22-11.1,40.37s-29.84,14.13-44.19,7.7C650.7,720.52,642.6,706.24,642.71,687.77Z" transform="translate(-0.67 -1)"/><path d="M1286.71,391.27a9.25,9.25,0,0,1,5,5.05c2.62,5.61,6.34,10.49,9.55,15.72,1.7,2.78,2.72,5.52.56,8.79-1.68,2.54-3.14,2.37-4.43.21-5.18-8.69-10-17.56-13-27.31C1283.91,392,1284.86,391.28,1286.71,391.27Z" transform="translate(-0.67 -1)"/><path d="M1095.46,816.7a1.73,1.73,0,0,1,2,1.84,42.38,42.38,0,0,0,2.85,15,2.71,2.71,0,0,1-.46,2.26c-.56.76-1.47.34-2.23,0-4-2-6.33-15-3.24-18.23A6.68,6.68,0,0,1,1095.46,816.7Z" transform="translate(-0.67 -1)"/><path d="M1110.9,850.34c.06,1.23-.38,2-1.27,2-2,.06-2.66-1.6-3.26-3.08a1.14,1.14,0,0,1,1.13-1.66C1109.35,847.72,1110.21,849.13,1110.9,850.34Z" transform="translate(-0.67 -1)"/><path d="M1035.25,220.76a2.41,2.41,0,0,1-2.7,1.91c-1,0-2.13-.39-2.06-1.57.11-2.08,2-1.73,3.34-2C1034.77,218.9,1035.38,219.39,1035.25,220.76Z" transform="translate(-0.67 -1)"/><path d="M769.54,157.8c-3.07,2.8-5.9,3.51-10.1,4.09C762.85,159.39,765.25,157.63,769.54,157.8Z" transform="translate(-0.67 -1)"/></g></g></svg>